<?xml version="1.0" encoding="utf-8"?>
<!-- Generator: Adobe Illustrator 16.0.4, SVG Export Plug-In . SVG Version: 6.00 Build 0)  -->
<!DOCTYPE svg PUBLIC "-//W3C//DTD SVG 1.1//EN" "http://www.w3.org/Graphics/SVG/1.1/DTD/svg11.dtd">
<svg version="1.1" id="Layer_1" xmlns="http://www.w3.org/2000/svg" xmlns:xlink="http://www.w3.org/1999/xlink" x="0px" y="0px"
	 width="600px" height="126px" viewBox="0 0 600 126" enable-background="new 0 0 600 126" xml:space="preserve">
<rect display="none" fill="#282828" width="600" height="126"/>
<radialGradient id="SVGID_1_" cx="636.6738" cy="-164.334" r="54.9001" gradientTransform="matrix(1 0 0 -1 -96 -104)" gradientUnits="userSpaceOnUse">
	<stop  offset="0" style="stop-color:#333333"/>
	<stop  offset="0" style="stop-color:#454545"/>
	<stop  offset="0" style="stop-color:#757575"/>
	<stop  offset="0" style="stop-color:#C1C1C1"/>
	<stop  offset="0" style="stop-color:#FFFFFF"/>
	<stop  offset="0.9503" style="stop-color:#FFFFFF"/>
	<stop  offset="1" style="stop-color:#FFFFFF"/>
</radialGradient>
<circle fill="url(#SVGID_1_)" stroke="#58595B" stroke-width="2" stroke-miterlimit="10" cx="540.674" cy="60.334" r="54.9"/>
<linearGradient id="SVGID_2_" gradientUnits="userSpaceOnUse" x1="603.6025" y1="-198.4922" x2="687.3896" y2="-198.4922" gradientTransform="matrix(1 0 0 -1 -96 -104)">
	<stop  offset="0" style="stop-color:#141414"/>
	<stop  offset="0.34" style="stop-color:#252626"/>
	<stop  offset="1" style="stop-color:#515254"/>
</linearGradient>
<path fill="url(#SVGID_2_)" d="M507.624,89.664l66.76-16.507c0,0,17.421,7.356,16.998,8.253
	c-1.536,3.255-13.188,33.566-49.501,34.398C505.572,116.643,507.624,89.664,507.624,89.664z"/>
<linearGradient id="SVGID_3_" gradientUnits="userSpaceOnUse" x1="603.624" y1="-164.0342" x2="641.0537" y2="-164.0342" gradientTransform="matrix(1 0 0 -1 -96 -104)">
	<stop  offset="0" style="stop-color:#141414"/>
	<stop  offset="0.34" style="stop-color:#252626"/>
	<stop  offset="1" style="stop-color:#515254"/>
</linearGradient>
<polygon fill="url(#SVGID_3_)" points="545.054,21.031 507.624,30.741 507.624,89.664 545.054,99.037 "/>
<linearGradient id="SVGID_4_" gradientUnits="userSpaceOnUse" x1="655.7227" y1="-125.1372" x2="655.7227" y2="-202.9341" gradientTransform="matrix(1 0 0 -1 -96 -104)">
	<stop  offset="0.3878" style="stop-color:#C7C8CA"/>
	<stop  offset="0.6693" style="stop-color:#F0F0F0"/>
</linearGradient>
<polygon fill="url(#SVGID_4_)" points="545.062,21.137 574.384,45.51 574.384,74.091 545.062,98.934 "/>
<linearGradient id="SVGID_5_" gradientUnits="userSpaceOnUse" x1="649.4443" y1="-163.8066" x2="663.1357" y2="-163.8066" gradientTransform="matrix(1 0 0 -1 -96 -104)">
	<stop  offset="0" style="stop-color:#000000"/>
	<stop  offset="0.2235" style="stop-color:#151415"/>
	<stop  offset="1" style="stop-color:#BEC0C2"/>
</linearGradient>
<polygon fill="url(#SVGID_5_)" points="553.444,40.442 553.444,79.171 567.136,69.798 567.136,50.064 "/>
<linearGradient id="SVGID_6_" gradientUnits="userSpaceOnUse" x1="649.7334" y1="-175.1436" x2="659.8295" y2="-180.2877" gradientTransform="matrix(1 0 0 -1 -96 -104)">
	<stop  offset="0" style="stop-color:#000000"/>
	<stop  offset="0" style="stop-color:#080809"/>
	<stop  offset="0.1249" style="stop-color:#202021"/>
	<stop  offset="0.3099" style="stop-color:#444446"/>
	<stop  offset="0.5324" style="stop-color:#626365"/>
	<stop  offset="0.7815" style="stop-color:#848689"/>
	<stop  offset="1" style="stop-color:#A7A9AC"/>
</linearGradient>
<polygon fill="url(#SVGID_6_)" points="553.444,79.171 567.136,69.798 554.118,70.389 "/>
<linearGradient id="SVGID_7_" gradientUnits="userSpaceOnUse" x1="652.2646" y1="-155.0361" x2="656.3312" y2="-149.2285" gradientTransform="matrix(1 0 0 -1 -96 -104)">
	<stop  offset="0.0581" style="stop-color:#000000"/>
	<stop  offset="0.1842" style="stop-color:#090909"/>
	<stop  offset="0.3929" style="stop-color:#222222"/>
	<stop  offset="0.6584" style="stop-color:#4B4B4B"/>
	<stop  offset="0.9673" style="stop-color:#848484"/>
	<stop  offset="1" style="stop-color:#8A8A8A"/>
</linearGradient>
<polygon fill="url(#SVGID_7_)" points="553.494,40.442 567.136,50.064 553.901,49.382 "/>
<g>
	<g>
		<g>
			
				<radialGradient id="SVGID_8_" cx="619.0664" cy="-158.6367" r="17.6473" gradientTransform="matrix(0.8859 0 0 -1.0624 -22.7071 -108.6984)" gradientUnits="userSpaceOnUse">
				<stop  offset="0" style="stop-color:#333333"/>
				<stop  offset="0" style="stop-color:#454545"/>
				<stop  offset="0" style="stop-color:#747575"/>
				<stop  offset="0" style="stop-color:#C0C0C1"/>
				<stop  offset="0" style="stop-color:#E4E5E6"/>
				<stop  offset="0.4592" style="stop-color:#CBCCCE"/>
				<stop  offset="0.97" style="stop-color:#ADAFB2"/>
			</radialGradient>
			<path fill="url(#SVGID_8_)" d="M524.652,82.15c-3.28-0.732-5.768-2.396-7.567-4.951c-1.942-2.733-2.886-6.28-2.886-10.729V65.04
				l1.794,0.101v2.25c0,3.323,0.81,5.976,2.467,8.008c1.485,1.894,3.464,3.098,6.001,3.584c2.488,0.479,4.683,0.133,6.534-1.09
				c2.324-1.535,3.525-4.115,3.525-7.682c0-6.889-3.259-10.328-9.229-10.316l-2.584,0.005v-3.07l2.641-0.09
				c5.509-0.184,8.5-3.247,8.5-9.17c0-3.01-1.057-5.094-3.104-6.219c-1.596-0.876-3.507-1.083-5.702-0.655
				c-3.031,0.592-5.144,1.947-6.442,4.042c-1.261,2.04-1.881,4.98-1.881,8.86l-1.822,0.131c0-5.005,0.885-8.776,2.706-11.393
				c1.667-2.422,4.067-4.018,7.312-4.756c2.885-0.655,5.38-0.447,7.41,0.688c2.775,1.492,4.218,4.51,4.218,8.988
				c0,5.326-1.846,8.975-5.357,10.85c3.969,1.941,6.065,6.098,6.065,12.357c0,4.857-1.531,8.329-4.473,10.327
				C530.438,82.409,527.706,82.834,524.652,82.15z"/>
			
				<radialGradient id="SVGID_9_" cx="619.0684" cy="-158.6377" r="17.9285" gradientTransform="matrix(0.8859 0 0 -1.0624 -22.7071 -108.6984)" gradientUnits="userSpaceOnUse">
				<stop  offset="0" style="stop-color:#333333"/>
				<stop  offset="0" style="stop-color:#454545"/>
				<stop  offset="0" style="stop-color:#747575"/>
				<stop  offset="0" style="stop-color:#C0C0C1"/>
				<stop  offset="0" style="stop-color:#E4E5E6"/>
				<stop  offset="0.4592" style="stop-color:#CBCCCE"/>
				<stop  offset="0.97" style="stop-color:#ADAFB2"/>
			</radialGradient>
			<path fill="url(#SVGID_9_)" d="M527.352,82.771c-0.879,0-1.801-0.105-2.745-0.314c-3.317-0.742-5.845-2.396-7.718-5.059
				c-1.983-2.787-2.946-6.36-2.946-10.928v-1.756l2.312,0.131v2.545c0,3.271,0.782,5.817,2.393,7.791
				c1.475,1.879,3.389,3.022,5.854,3.492c2.449,0.471,4.599,0.116,6.371-1.051c2.25-1.491,3.393-3.984,3.393-7.413
				c0-6.64-3.008-10.006-8.938-10.006l-2.877,0.006v-3.683l2.892-0.097c5.475-0.183,8.25-3.165,8.25-8.86
				c0-2.865-0.995-4.862-2.953-5.938c-1.527-0.838-3.399-1.05-5.554-0.63c-2.945,0.576-4.998,1.859-6.277,3.922
				c-1.229,1.989-1.828,4.827-1.828,8.674v0.293l-2.343,0.167V53.73c0-5.125,0.907-8.917,2.77-11.593
				c1.736-2.523,4.179-4.114,7.462-4.859c2.963-0.674,5.519-0.432,7.567,0.71c2.896,1.559,4.366,4.679,4.366,9.27
				c0,5.172-1.681,8.815-4.993,10.838c3.783,2.117,5.701,6.275,5.701,12.369c0,4.957-1.55,8.521-4.604,10.598
				C531.261,82.197,529.392,82.771,527.352,82.771z M514.458,65.364v1.106c0,4.413,0.923,7.855,2.824,10.527
				c1.794,2.549,4.222,4.135,7.417,4.85c3.021,0.674,5.702,0.228,7.947-1.324c2.883-1.959,4.344-5.342,4.344-10.06
				c0-6.092-1.985-10.153-5.905-12.07l-0.56-0.275l0.553-0.295c3.455-1.843,5.205-5.4,5.205-10.567c0-4.324-1.367-7.254-4.064-8.708
				c-1.955-1.088-4.405-1.311-7.259-0.663c-3.159,0.718-5.5,2.237-7.157,4.647c-1.744,2.502-2.61,6.06-2.649,10.867l1.311-0.092
				c0.029-3.84,0.66-6.706,1.928-8.754c1.364-2.197,3.525-3.559,6.609-4.163c2.255-0.44,4.228-0.211,5.851,0.678
				c2.161,1.187,3.254,3.374,3.254,6.501c0,6.01-3.023,9.288-8.748,9.48l-2.391,0.08v2.46l2.359-0.005
				c6.185,0,9.453,3.674,9.453,10.626c0,3.67-1.229,6.348-3.658,7.956c-1.876,1.235-4.139,1.612-6.703,1.12
				c-2.546-0.488-4.614-1.725-6.146-3.68c-1.705-2.088-2.534-4.777-2.534-8.217v-1.955L514.458,65.364z"/>
		</g>
	</g>
</g>
<g display="none">
	
		<text transform="matrix(1 0 0 1 154.376 72.5781)" display="inline" fill="#606161" font-family="'WalkwaySemiBold'" font-size="45.9479">MEDIENTOOLS</text>
</g>
<text transform="matrix(0.9121 0 0 1 250.771 90.5312)" display="none" fill="#212121" enable-background="new    " font-family="'Quicksand-Light'" font-size="11.3466">    CROSS-DIMENSIONAL COMMUNICATION</text>
<g enable-background="new    ">
	<path fill="#FFFFFF" d="M320.023,68.265V52.559l-7.789,15.706h-0.838l-7.789-15.706v15.706h-0.914V51.062l1.163,0.002l7.944,16.019
		l7.974-16.019l1.163-0.002v17.203H320.023z"/>
	<path fill="#FFFFFF" d="M323.475,68.265V51.062h12.712v0.837h-11.799v6.978h10.454v0.838h-10.454v7.714h11.926v0.837H323.475z"/>
	<path fill="#FFFFFF" d="M343.545,68.265h-5.76V51.062h6.725c2.773,0,4.871,0.77,6.293,2.309c1.387,1.472,2.08,3.578,2.08,6.318
		c0,2.808-0.871,4.956-2.613,6.444C348.629,67.554,346.387,68.265,343.545,68.265z M350.143,53.979
		c-1.27-1.388-3.155-2.081-5.658-2.081h-5.785v15.529h4.922c2.605,0,4.647-0.656,6.128-1.967c1.479-1.311,2.22-3.235,2.22-5.772
		C351.969,57.185,351.36,55.282,350.143,53.979z"/>
	<path fill="#FFFFFF" d="M355.039,68.265V51.062h0.914v17.203H355.039z"/>
	<path fill="#FFFFFF" d="M358.439,68.265V51.062h12.712v0.837h-11.799v6.978h10.454v0.838h-10.454v7.714h11.926v0.837H358.439z"/>
	<path fill="#FFFFFF" d="M386.408,68.259L373.664,52.29v15.975h-0.914V51.062h1.066c1.424,1.857,3.551,4.51,6.383,7.956
		c2.92,3.592,5.046,6.243,6.38,7.954v-15.91h0.913v17.203L386.408,68.259z"/>
	<path fill="#FFFFFF" d="M396.119,51.898v16.366h-0.914V51.898h-6.597v-0.837h14.083v0.837H396.119z"/>
	<path fill="#FFFFFF" d="M412.182,68.442c-2.791,0-4.974-0.778-6.547-2.335c-1.573-1.556-2.359-3.704-2.359-6.444
		c0-2.706,0.79-4.805,2.372-6.293c1.581-1.488,3.759-2.233,6.534-2.233c2.773,0,4.96,0.745,6.559,2.233s2.398,3.587,2.398,6.293
		c0,2.757-0.805,4.909-2.411,6.457S414.938,68.442,412.182,68.442z M412.182,51.975c-2.504,0-4.463,0.672-5.875,2.018
		c-1.412,1.345-2.118,3.234-2.118,5.671c0,2.436,0.71,4.368,2.132,5.798c1.42,1.43,3.374,2.144,5.861,2.144
		c2.52,0,4.49-0.706,5.912-2.118c1.42-1.412,2.131-3.354,2.131-5.823s-0.728-4.381-2.182-5.734
		C416.639,52.626,414.685,51.975,412.182,51.975z"/>
	<path fill="#FFFFFF" d="M431.389,68.442c-2.791,0-4.973-0.778-6.547-2.335c-1.572-1.556-2.359-3.704-2.359-6.444
		c0-2.706,0.791-4.805,2.373-6.293c1.581-1.488,3.759-2.233,6.533-2.233c2.773,0,4.961,0.745,6.559,2.233
		c1.6,1.488,2.398,3.587,2.398,6.293c0,2.757-0.804,4.909-2.41,6.457C436.328,67.668,434.146,68.442,431.389,68.442z
		 M431.389,51.975c-2.504,0-4.462,0.672-5.874,2.018c-1.413,1.345-2.118,3.234-2.118,5.671c0,2.436,0.71,4.368,2.131,5.798
		s3.375,2.144,5.861,2.144c2.521,0,4.491-0.706,5.912-2.118s2.131-3.354,2.131-5.823s-0.727-4.381-2.182-5.734
		C435.846,52.626,433.893,51.975,431.389,51.975z"/>
	<path fill="#FFFFFF" d="M442.248,68.265V51.062h0.914v16.366h10.859v0.837H442.248z"/>
	<path fill="#FFFFFF" d="M462.192,68.442c-2.183,0-3.933-0.389-5.253-1.167c-1.59-0.965-2.385-2.47-2.385-4.517v-0.432h0.914v0.33
		c0,3.299,2.249,4.947,6.749,4.947c1.539,0,2.825-0.236,3.856-0.71c1.387-0.643,2.081-1.641,2.081-2.994
		c0-0.931-0.254-1.641-0.761-2.132c-0.424-0.422-1.126-0.777-2.106-1.065c-0.508-0.152-1.718-0.432-3.629-0.837
		c-2.148-0.457-3.603-0.88-4.364-1.27c-1.455-0.777-2.182-1.911-2.182-3.399c0-2.876,2.198-4.313,6.597-4.313
		c4.601,0,6.936,1.759,7.003,5.277H467.8c-0.102-1.759-0.745-2.969-1.929-3.628c-0.93-0.542-2.317-0.812-4.161-0.812
		c-3.789,0-5.684,1.159-5.684,3.477c0,1.15,0.532,2.013,1.599,2.588c0.693,0.372,1.877,0.711,3.553,1.015
		c3.061,0.559,5.1,1.151,6.115,1.776c1.184,0.711,1.775,1.844,1.775,3.4c0,1.573-0.803,2.757-2.41,3.552
		C465.423,68.138,463.935,68.442,462.192,68.442z"/>
</g>
<g enable-background="new    ">
	<path fill="#FCFAFC" d="M364.011,73.727c0.492,0,0.95,0.188,1.3,0.483c0.034,0.031,0.045,0.081,0.022,0.112
		c-0.034,0.038-0.08,0.045-0.108,0.014c-0.332-0.283-0.75-0.445-1.214-0.445c-1.059,0-1.928,0.922-1.928,2.057
		c0,1.147,0.869,2.069,1.928,2.069c0.458,0,0.876-0.163,1.208-0.445c0.034-0.024,0.08-0.024,0.108,0.013
		c0.028,0.031,0.018,0.082-0.017,0.113c-0.361,0.295-0.808,0.482-1.3,0.482c-1.144-0.006-2.077-1.004-2.077-2.232
		C361.934,74.73,362.867,73.727,364.011,73.727z"/>
	<path fill="#FCFAFC" d="M368.583,77.232c0-0.307-0.126-0.52-0.286-0.678c-0.154-0.15-0.383-0.325-1.013-0.325h-0.703v1.868
		c0,0.045-0.029,0.082-0.069,0.082s-0.074-0.037-0.074-0.082v-4.227c0-0.044,0.034-0.082,0.074-0.082h0.006h0.006h1.161
		c0.612,0,1.116,0.547,1.116,1.224c0,0.558-0.338,1.022-0.801,1.167c0.068,0.031,0.137,0.068,0.206,0.112
		c0.251,0.157,0.521,0.458,0.521,0.94c0,0.357,0.046,0.553,0.086,0.641c0.04,0.081,0.074,0.074,0.091,0.074
		c0.046-0.006,0.086,0.025,0.092,0.062c0.012,0.082-0.051,0.102-0.097,0.102c-0.058,0-0.149-0.045-0.206-0.17
		C368.623,77.816,368.583,77.609,368.583,77.232z M367.685,76.066h0.012c0.526-0.006,0.956-0.465,0.956-1.054
		s-0.436-1.066-0.968-1.066h-1.104v2.12H367.685z"/>
	<path fill="#FCFAFC" d="M371.767,73.727c1.081,0,1.945,1.01,1.957,2.265c-0.012,1.261-0.876,2.271-1.957,2.271
		s-1.945-1.01-1.951-2.271C369.821,74.736,370.686,73.727,371.767,73.727z M371.767,78.092c0.979-0.013,1.791-0.94,1.797-2.101
		c-0.006-1.167-0.818-2.101-1.797-2.101c-0.984,0-1.797,0.934-1.797,2.101C369.97,77.151,370.782,78.079,371.767,78.092z"/>
	<path fill="#FCFAFC" d="M374.604,77.578c-0.028-0.031-0.034-0.082-0.005-0.113c0.028-0.031,0.074-0.037,0.103-0.006
		c0.006,0.006,0.606,0.596,1.391,0.596c0.772,0,1.373-0.477,1.373-1.086c0-0.695-0.612-0.853-1.259-1.016
		c-0.664-0.169-1.351-0.345-1.351-1.147c0-0.571,0.556-1.041,1.242-1.041c0.789,0,1.201,0.508,1.219,0.533
		c0.028,0.031,0.022,0.081-0.006,0.112c-0.034,0.025-0.08,0.025-0.104-0.006c-0.005-0.006-0.389-0.477-1.109-0.477
		c-0.601,0-1.093,0.395-1.093,0.878c0,0.671,0.601,0.827,1.235,0.991c0.676,0.169,1.368,0.345,1.368,1.172
		c0,0.697-0.664,1.242-1.517,1.242C375.252,78.211,374.628,77.603,374.604,77.578z"/>
	<path fill="#FCFAFC" d="M378.359,77.578c-0.028-0.031-0.034-0.082-0.005-0.113c0.028-0.031,0.074-0.037,0.103-0.006
		c0.006,0.006,0.606,0.596,1.391,0.596c0.772,0,1.373-0.477,1.373-1.086c0-0.695-0.612-0.853-1.259-1.016
		c-0.664-0.169-1.351-0.345-1.351-1.147c0-0.571,0.556-1.041,1.242-1.041c0.789,0,1.201,0.508,1.219,0.533
		c0.028,0.031,0.022,0.081-0.006,0.112c-0.034,0.025-0.08,0.025-0.104-0.006c-0.005-0.006-0.389-0.477-1.109-0.477
		c-0.601,0-1.093,0.395-1.093,0.878c0,0.671,0.601,0.827,1.235,0.991c0.676,0.169,1.368,0.345,1.368,1.172
		c0,0.697-0.664,1.242-1.517,1.242C379.007,78.211,378.383,77.603,378.359,77.578z"/>
	<path fill="#FCFAFC" d="M382.171,75.991c0-0.038,0.023-0.069,0.058-0.069h1.305c0.034,0,0.052,0.031,0.052,0.069
		s-0.018,0.056-0.052,0.056h-1.305C382.194,76.047,382.171,76.029,382.171,75.991z"/>
	<path fill="#FCFAFC" d="M384.721,73.871c0-0.044,0.028-0.082,0.074-0.082h0.006h0.761c1.11,0,2.003,0.985,2.003,2.189
		c0,1.217-0.893,2.201-2.003,2.201h-0.761h-0.006c-0.046,0-0.074-0.037-0.074-0.082V73.871z M385.562,78.023
		c1.03-0.014,1.854-0.916,1.86-2.045c-0.006-1.116-0.83-2.032-1.86-2.032h-0.697v4.077H385.562z"/>
	<path fill="#FCFAFC" d="M388.584,73.871c0-0.05,0.028-0.082,0.074-0.082c0.034,0,0.069,0.032,0.069,0.082v4.227
		c0,0.051-0.035,0.082-0.069,0.082c-0.046,0-0.074-0.031-0.074-0.082V73.871z"/>
	<path fill="#FCFAFC" d="M393.491,74.109l-1.459,2.227c-0.017,0.019-0.04,0.031-0.062,0.031h-0.012
		c-0.028,0-0.052-0.013-0.062-0.031l-1.465-2.232v3.994c0,0.045-0.029,0.082-0.069,0.082s-0.074-0.037-0.074-0.082v-4.221
		c0-0.037,0.034-0.081,0.074-0.081c0.006,0,0.012,0,0.018,0.007c0.017,0,0.034,0.012,0.052,0.024l1.533,2.333l1.533-2.333
		c0.012-0.013,0.029-0.024,0.046-0.024c0.006-0.007,0.012-0.007,0.018-0.007c0.046,0,0.074,0.044,0.074,0.081v4.221
		c0,0.045-0.028,0.082-0.074,0.082c-0.034,0-0.069-0.037-0.069-0.082V74.109z"/>
	<path fill="#FCFAFC" d="M394.905,78.18h-0.012c-0.045,0-0.068-0.037-0.068-0.082v-4.227c0-0.037,0.023-0.075,0.068-0.082h0.006
		h0.006h2.123c0.04,0,0.069,0.038,0.069,0.082s-0.029,0.075-0.069,0.075h-2.06v1.957h1.813c0.04,0,0.069,0.038,0.069,0.075
		c0,0.051-0.029,0.082-0.069,0.082h-1.813v1.963h2.06c0.04,0,0.069,0.031,0.069,0.074c0,0.045-0.029,0.082-0.069,0.082h-2.117
		H394.905z"/>
	<path fill="#FCFAFC" d="M398.357,74.115v3.982c0,0.045-0.028,0.082-0.068,0.082c-0.035,0-0.075-0.037-0.075-0.082v-4.195v-0.019
		c0-0.024,0.012-0.05,0.029-0.069c0.04-0.025,0.08-0.019,0.103,0.013l2.644,4.026v-3.951c0-0.043,0.04-0.081,0.074-0.081
		c0.04,0,0.069,0.038,0.069,0.081v4.195c0,0.045-0.029,0.082-0.069,0.082c-0.028,0-0.057-0.02-0.068-0.051
		c-0.006,0-0.006,0-0.006-0.006L398.357,74.115z"/>
	<path fill="#FCFAFC" d="M402.404,77.578c-0.029-0.031-0.034-0.082-0.006-0.113s0.074-0.037,0.103-0.006
		c0.006,0.006,0.606,0.596,1.391,0.596c0.772,0,1.373-0.477,1.373-1.086c0-0.695-0.612-0.853-1.259-1.016
		c-0.663-0.169-1.35-0.345-1.35-1.147c0-0.571,0.555-1.041,1.241-1.041c0.79,0,1.201,0.508,1.219,0.533
		c0.028,0.031,0.022,0.081-0.006,0.112c-0.034,0.025-0.08,0.025-0.103-0.006c-0.006-0.006-0.39-0.477-1.11-0.477
		c-0.601,0-1.093,0.395-1.093,0.878c0,0.671,0.601,0.827,1.236,0.991c0.675,0.169,1.367,0.345,1.367,1.172
		c0,0.697-0.664,1.242-1.517,1.242C403.051,78.211,402.427,77.603,402.404,77.578z"/>
	<path fill="#FCFAFC" d="M406.473,73.871c0-0.05,0.029-0.082,0.075-0.082c0.034,0,0.068,0.032,0.068,0.082v4.227
		c0,0.051-0.034,0.082-0.068,0.082c-0.046,0-0.075-0.031-0.075-0.082V73.871z"/>
	<path fill="#FCFAFC" d="M409.95,73.727c1.081,0,1.945,1.01,1.957,2.265c-0.012,1.261-0.876,2.271-1.957,2.271
		c-1.082,0-1.945-1.01-1.951-2.271C408.005,74.736,408.868,73.727,409.95,73.727z M409.95,78.092
		c0.979-0.013,1.791-0.94,1.797-2.101c-0.006-1.167-0.818-2.101-1.797-2.101c-0.984,0-1.797,0.934-1.797,2.101
		C408.153,77.151,408.966,78.079,409.95,78.092z"/>
	<path fill="#FCFAFC" d="M413.028,74.115v3.982c0,0.045-0.028,0.082-0.068,0.082c-0.035,0-0.075-0.037-0.075-0.082v-4.195v-0.019
		c0-0.024,0.012-0.05,0.029-0.069c0.04-0.025,0.08-0.019,0.103,0.013l2.644,4.026v-3.951c0-0.043,0.04-0.081,0.074-0.081
		c0.04,0,0.069,0.038,0.069,0.081v4.195c0,0.045-0.029,0.082-0.069,0.082c-0.028,0-0.057-0.02-0.068-0.051
		c-0.006,0-0.006,0-0.006-0.006L413.028,74.115z"/>
	<path fill="#FCFAFC" d="M419.54,76.988h-2.003l-0.383,1.123c-0.006,0.031-0.034,0.056-0.063,0.056
		c-0.006,0-0.017-0.007-0.028-0.007c-0.034-0.018-0.052-0.062-0.034-0.105l1.441-4.215c0.012-0.037,0.04-0.057,0.075-0.051
		c0.028,0,0.057,0.02,0.074,0.051l1.441,4.215c0.018,0.043-0.006,0.088-0.04,0.105c-0.011,0-0.017,0.007-0.022,0.007
		c-0.028,0-0.058-0.024-0.074-0.056L419.54,76.988z M417.595,76.825h1.889l-0.944-2.747L417.595,76.825z"/>
	<path fill="#FCFAFC" d="M421.069,78.18h-0.011c-0.04,0-0.075-0.037-0.075-0.082v-4.227c0-0.044,0.035-0.082,0.075-0.082
		s0.068,0.038,0.068,0.082v4.152h2.065c0.046,0,0.074,0.031,0.074,0.074c0,0.045-0.028,0.082-0.074,0.082H421.069z"/>
	<path fill="#FCFAFC" d="M427.816,73.727c0.492,0,0.949,0.188,1.299,0.483c0.034,0.031,0.046,0.081,0.022,0.112
		c-0.034,0.038-0.08,0.045-0.108,0.014c-0.332-0.283-0.75-0.445-1.213-0.445c-1.059,0-1.929,0.922-1.929,2.057
		c0,1.147,0.87,2.069,1.929,2.069c0.457,0,0.875-0.163,1.207-0.445c0.034-0.024,0.08-0.024,0.108,0.013
		c0.029,0.031,0.018,0.082-0.017,0.113c-0.36,0.295-0.807,0.482-1.299,0.482c-1.145-0.006-2.077-1.004-2.077-2.232
		C425.739,74.73,426.672,73.727,427.816,73.727z"/>
	<path fill="#FCFAFC" d="M431.982,73.727c1.081,0,1.945,1.01,1.957,2.265c-0.012,1.261-0.876,2.271-1.957,2.271
		c-1.082,0-1.945-1.01-1.951-2.271C430.037,74.736,430.9,73.727,431.982,73.727z M431.982,78.092
		c0.979-0.013,1.791-0.94,1.797-2.101c-0.006-1.167-0.818-2.101-1.797-2.101c-0.984,0-1.797,0.934-1.797,2.101
		C430.186,77.151,430.998,78.079,431.982,78.092z"/>
	<path fill="#FCFAFC" d="M438.042,74.109l-1.46,2.227c-0.017,0.019-0.04,0.031-0.062,0.031h-0.012c-0.028,0-0.051-0.013-0.062-0.031
		l-1.465-2.232v3.994c0,0.045-0.028,0.082-0.068,0.082s-0.075-0.037-0.075-0.082v-4.221c0-0.037,0.035-0.081,0.075-0.081
		c0.005,0,0.011,0,0.017,0.007c0.018,0,0.034,0.012,0.052,0.024l1.533,2.333l1.533-2.333c0.012-0.013,0.029-0.024,0.046-0.024
		c0.006-0.007,0.012-0.007,0.018-0.007c0.046,0,0.074,0.044,0.074,0.081v4.221c0,0.045-0.028,0.082-0.074,0.082
		c-0.034,0-0.068-0.037-0.068-0.082V74.109z"/>
	<path fill="#FCFAFC" d="M442.683,74.109l-1.46,2.227c-0.017,0.019-0.04,0.031-0.062,0.031h-0.012c-0.028,0-0.051-0.013-0.062-0.031
		l-1.465-2.232v3.994c0,0.045-0.028,0.082-0.068,0.082s-0.075-0.037-0.075-0.082v-4.221c0-0.037,0.035-0.081,0.075-0.081
		c0.005,0,0.011,0,0.017,0.007c0.018,0,0.034,0.012,0.052,0.024l1.533,2.333l1.533-2.333c0.012-0.013,0.029-0.024,0.046-0.024
		c0.006-0.007,0.012-0.007,0.018-0.007c0.046,0,0.074,0.044,0.074,0.081v4.221c0,0.045-0.028,0.082-0.074,0.082
		c-0.034,0-0.068-0.037-0.068-0.082V74.109z"/>
	<path fill="#FCFAFC" d="M444.308,73.871c0-0.044,0.029-0.082,0.074-0.082c0.04,0,0.069,0.038,0.069,0.082v2.547
		c0,0.891,0.652,1.592,1.459,1.605c0.801-0.014,1.453-0.715,1.459-1.605v-2.547c0-0.044,0.034-0.082,0.074-0.082
		c0.034,0,0.074,0.038,0.074,0.082v2.547c0,0.979-0.727,1.762-1.607,1.762c-0.887,0-1.603-0.783-1.603-1.762V73.871z"/>
	<path fill="#FCFAFC" d="M449.012,74.115v3.982c0,0.045-0.028,0.082-0.068,0.082c-0.035,0-0.075-0.037-0.075-0.082v-4.195v-0.019
		c0-0.024,0.012-0.05,0.029-0.069c0.04-0.025,0.08-0.019,0.103,0.013l2.644,4.026v-3.951c0-0.043,0.04-0.081,0.074-0.081
		c0.04,0,0.069,0.038,0.069,0.081v4.195c0,0.045-0.029,0.082-0.069,0.082c-0.028,0-0.057-0.02-0.068-0.051
		c-0.006,0-0.006,0-0.006-0.006L449.012,74.115z"/>
	<path fill="#FCFAFC" d="M453.114,73.871c0-0.05,0.029-0.082,0.075-0.082c0.034,0,0.068,0.032,0.068,0.082v4.227
		c0,0.051-0.034,0.082-0.068,0.082c-0.046,0-0.075-0.031-0.075-0.082V73.871z"/>
	<path fill="#FCFAFC" d="M456.718,73.727c0.492,0,0.949,0.188,1.299,0.483c0.034,0.031,0.046,0.081,0.022,0.112
		c-0.034,0.038-0.08,0.045-0.108,0.014c-0.332-0.283-0.75-0.445-1.213-0.445c-1.059,0-1.929,0.922-1.929,2.057
		c0,1.147,0.87,2.069,1.929,2.069c0.457,0,0.875-0.163,1.207-0.445c0.034-0.024,0.08-0.024,0.108,0.013
		c0.029,0.031,0.018,0.082-0.017,0.113c-0.36,0.295-0.807,0.482-1.299,0.482c-1.145-0.006-2.077-1.004-2.077-2.232
		C454.641,74.73,455.573,73.727,456.718,73.727z"/>
	<path fill="#FCFAFC" d="M461.387,76.988h-2.003l-0.383,1.123c-0.006,0.031-0.034,0.056-0.063,0.056
		c-0.006,0-0.017-0.007-0.028-0.007c-0.034-0.018-0.052-0.062-0.034-0.105l1.441-4.215c0.012-0.037,0.04-0.057,0.075-0.051
		c0.028,0,0.057,0.02,0.074,0.051l1.441,4.215c0.018,0.043-0.006,0.088-0.04,0.105c-0.011,0-0.017,0.007-0.022,0.007
		c-0.028,0-0.058-0.024-0.074-0.056L461.387,76.988z M459.441,76.825h1.889l-0.944-2.747L459.441,76.825z"/>
	<path fill="#FCFAFC" d="M463.347,73.946h-1.322c-0.04,0-0.074-0.031-0.074-0.075s0.034-0.082,0.074-0.082h2.787
		c0.046,0,0.074,0.038,0.074,0.082s-0.028,0.075-0.074,0.075h-1.316v4.151c0,0.045-0.04,0.082-0.074,0.082
		c-0.046,0-0.074-0.037-0.074-0.082V73.946z"/>
	<path fill="#FCFAFC" d="M466.002,73.871c0-0.05,0.029-0.082,0.075-0.082c0.034,0,0.068,0.032,0.068,0.082v4.227
		c0,0.051-0.034,0.082-0.068,0.082c-0.046,0-0.075-0.031-0.075-0.082V73.871z"/>
	<path fill="#FCFAFC" d="M469.479,73.727c1.081,0,1.945,1.01,1.957,2.265c-0.012,1.261-0.876,2.271-1.957,2.271
		c-1.082,0-1.945-1.01-1.951-2.271C467.534,74.736,468.397,73.727,469.479,73.727z M469.479,78.092
		c0.979-0.013,1.791-0.94,1.797-2.101c-0.006-1.167-0.818-2.101-1.797-2.101c-0.984,0-1.797,0.934-1.797,2.101
		C467.683,77.151,468.495,78.079,469.479,78.092z"/>
	<path fill="#FCFAFC" d="M472.558,74.115v3.982c0,0.045-0.028,0.082-0.068,0.082c-0.035,0-0.075-0.037-0.075-0.082v-4.195v-0.019
		c0-0.024,0.012-0.05,0.029-0.069c0.04-0.025,0.08-0.019,0.103,0.013l2.644,4.026v-3.951c0-0.043,0.04-0.081,0.074-0.081
		c0.04,0,0.069,0.038,0.069,0.081v4.195c0,0.045-0.029,0.082-0.069,0.082c-0.028,0-0.057-0.02-0.068-0.051
		c-0.006,0-0.006,0-0.006-0.006L472.558,74.115z"/>
</g>
<g>
	<g>
		<g>
			<defs>
				<path id="SVGID_10_" d="M251.523,82.268c-1.802-1.104-6-3.121-15.192-5.521c6.949,1.687,10.937,3.19,13.209,4.337
					C250.449,81.54,251.082,81.939,251.523,82.268"/>
			</defs>
			<use xlink:href="#SVGID_10_"  overflow="visible" fill="#FFFFFF"/>
			<clipPath id="SVGID_11_">
				<use xlink:href="#SVGID_10_"  overflow="visible"/>
			</clipPath>
			<g transform="matrix(1 0 0 1 0 -7.629395e-06)" clip-path="url(#SVGID_11_)">
			</g>
		</g>
	</g>
	<g>
		<g>
			<defs>
				<path id="SVGID_12_" d="M251.79,82.477c-1.721-1.117-6.283-3.432-17.373-6.181c0.661,0.149,1.3,0.3,1.914,0.451
					c9.192,2.397,13.39,4.415,15.192,5.521C251.621,82.34,251.71,82.41,251.79,82.477 M135.153,79.708
					c-1.215-0.405-2.301-0.81-3.278-1.233C132.862,78.872,133.955,79.273,135.153,79.708"/>
			</defs>
			<use xlink:href="#SVGID_12_"  overflow="visible" fill="#FFFFFF"/>
			<clipPath id="SVGID_13_">
				<use xlink:href="#SVGID_12_"  overflow="visible"/>
			</clipPath>
			<g clip-path="url(#SVGID_13_)">
			</g>
		</g>
	</g>
	<g>
		<g>
			<defs>
				<path id="SVGID_14_" d="M127.765,76.322c2.235,1.867,5.333,3.056,9.912,4.437c4.991,1.507,7.442,1.097,9.933,1.47
					c2.793,0.418,11.383,1.935,17.242,2.373c5.995,0.449,18.547,0.051,25.458,0.864c15.221,1.788,26.442,7.732,26.442,7.732
					s10.947-5.147,17.279-6.757c4.598-1.164,18.693-3.248,18.693-3.248s-0.867-3.557-22.008-7.955
					c-13.833-2.881-26.43-2.244-36.299-1.914c-7.335,0.244-21.034,3.494-28.259,4.781c-4.256,0.76-13.385,2.924-17.707,3.08
					c-2.812,0.103-4.841,0.4-11.099-1.312c-2.217-0.606-7.087-2.304-8.758-3.739C128.407,75.977,127.578,76.165,127.765,76.322"/>
			</defs>
			<use xlink:href="#SVGID_14_"  overflow="visible" fill="#FFFFFF"/>
			<clipPath id="SVGID_15_">
				<use xlink:href="#SVGID_14_"  overflow="visible"/>
			</clipPath>
			<path clip-path="url(#SVGID_15_)" fill="#FFFFFF" d="M127.765,76.322c2.092,1.584,5.406,2.654,9.899,4.295
				c5.121,1.865,7.455,1.236,9.946,1.611c2.794,0.418,11.385,1.934,17.242,2.373c5.995,0.448,18.549,0.051,25.458,0.863
				c15.222,1.788,26.442,7.732,26.442,7.732s10.947-5.147,17.279-6.756c4.598-1.166,18.693-3.25,18.693-3.25
				s-3.048-3.484-22.079-7.791c-13.78-3.121-26.359-2.407-36.227-2.077c-7.337,0.245-21.036,3.493-28.261,4.78
				c-4.255,0.761-13.385,2.924-17.707,3.082c-2.812,0.102-3.69,0.612-11.165-1.475c-2.214-0.618-7.892-2.975-8.692-3.578
				C128.399,75.99,127.57,76.176,127.765,76.322"/>
		</g>
		<g>
			<defs>
				<path id="SVGID_16_" d="M127.765,76.322c2.235,1.867,5.333,3.056,9.912,4.437c4.991,1.507,7.442,1.097,9.933,1.47
					c2.793,0.418,11.383,1.935,17.242,2.373c5.995,0.449,18.547,0.051,25.458,0.864c15.221,1.788,26.442,7.732,26.442,7.732
					s10.947-5.147,17.279-6.757c4.598-1.164,18.693-3.248,18.693-3.248s-0.867-3.557-22.008-7.955
					c-13.833-2.881-26.43-2.244-36.299-1.914c-7.335,0.244-21.034,3.494-28.259,4.781c-4.256,0.76-13.385,2.924-17.707,3.08
					c-2.812,0.103-4.841,0.4-11.099-1.312c-2.217-0.606-7.087-2.304-8.758-3.739C128.407,75.977,127.578,76.165,127.765,76.322"/>
			</defs>
			<use xlink:href="#SVGID_16_"  overflow="visible" fill="#FFFFFF"/>
			<clipPath id="SVGID_17_">
				<use xlink:href="#SVGID_16_"  overflow="visible"/>
			</clipPath>
			<path clip-path="url(#SVGID_17_)" fill="#FFFFFF" d="M127.765,76.322l-0.02,0.027c2.101,1.59,5.414,2.659,9.907,4.299
				c5.125,1.867,7.471,1.24,9.952,1.61c2.795,0.421,11.386,1.937,17.247,2.377c5.998,0.449,18.551,0.052,25.457,0.861
				c7.607,0.896,14.216,2.827,18.922,4.536c2.353,0.854,4.23,1.654,5.52,2.238c1.289,0.582,1.986,0.955,1.988,0.955l0.016,0.008
				l0.015-0.006c0.003-0.002,0.683-0.321,1.81-0.83c3.374-1.522,10.718-4.721,15.461-5.922c2.296-0.582,6.973-1.396,11.069-2.062
				c2.051-0.332,3.956-0.629,5.349-0.841c1.394-0.214,2.272-0.343,2.274-0.347l0.063-0.008l-0.042-0.048
				c-0.01-0.01-3.066-3.497-22.099-7.805c-8.48-1.919-16.504-2.39-23.722-2.39c-4.516,0-8.716,0.184-12.513,0.311
				c-7.343,0.246-21.04,3.494-28.265,4.781c-4.256,0.762-13.388,2.926-17.702,3.08c-1.027,0.039-1.797,0.131-2.72,0.131
				c-1.607,0-3.689-0.276-8.434-1.603c-2.207-0.614-7.894-2.977-8.683-3.571c-0.062-0.045-0.16-0.059-0.27-0.061
				c-0.135,0-0.29,0.023-0.413,0.062c-0.061,0.02-0.115,0.039-0.156,0.065l-0.074,0.099l0.043,0.076L127.765,76.322l0.022-0.026
				l-0.017-0.022l0.042-0.039c0.099-0.062,0.343-0.119,0.532-0.119c0.103,0,0.192,0.018,0.229,0.049
				c0.814,0.609,6.483,2.961,8.704,3.583c4.747,1.325,6.838,1.604,8.454,1.604c0.929,0,1.697-0.094,2.723-0.129
				c4.328-0.158,13.457-2.324,17.711-3.084c7.227-1.287,20.925-4.535,28.255-4.779c3.799-0.127,7.997-0.311,12.51-0.311
				c7.216,0,15.234,0.469,23.708,2.387c9.514,2.152,15.031,4.102,18.17,5.51c1.569,0.703,2.542,1.272,3.125,1.666
				c0.289,0.197,0.481,0.349,0.602,0.451c0.118,0.104,0.164,0.155,0.164,0.155l0.025-0.024l-0.004-0.031
				c0,0-14.096,2.081-18.698,3.248c-6.339,1.609-17.283,6.756-17.285,6.759l0.014,0.03l0.016-0.03
				c-0.001-0.003-11.225-5.946-26.454-7.737c-6.916-0.812-19.47-0.412-25.459-0.861c-5.855-0.438-14.444-1.955-17.24-2.373
				c-2.5-0.377-4.824,0.253-9.938-1.611c-4.494-1.638-7.805-2.711-9.889-4.288L127.765,76.322"/>
		</g>
		<g>
			<defs>
				<path id="SVGID_19_" d="M127.765,76.322c2.235,1.867,5.333,3.056,9.912,4.437c4.991,1.507,7.442,1.097,9.933,1.47
					c2.793,0.418,11.383,1.935,17.242,2.373c5.995,0.449,18.547,0.051,25.458,0.864c15.221,1.788,26.442,7.732,26.442,7.732
					s10.947-5.147,17.279-6.757c4.598-1.164,18.693-3.248,18.693-3.248s-0.867-3.557-22.008-7.955
					c-13.833-2.881-26.43-2.244-36.299-1.914c-7.335,0.244-21.034,3.494-28.259,4.781c-4.256,0.76-13.385,2.924-17.707,3.08
					c-2.812,0.103-4.841,0.4-11.099-1.312c-2.217-0.606-7.087-2.304-8.758-3.739C128.407,75.977,127.578,76.165,127.765,76.322"/>
			</defs>
			<use xlink:href="#SVGID_19_"  overflow="visible" fill="#FFFFFF"/>
			<clipPath id="SVGID_21_">
				<use xlink:href="#SVGID_19_"  overflow="visible"/>
			</clipPath>
			<path clip-path="url(#SVGID_21_)" fill="#FFFFFF" d="M204.676,84.749c0,0,1.253-0.922,2.339-1.617
				c0.775-0.498,2.259-1.401,2.259-1.401s3.957,0.582,5.27,0.847c1.708,0.343,6.897,1.685,6.897,1.685s-2.219,1.068-2.868,1.396
				c-0.882,0.441-3.267,1.652-3.267,1.652s-4.146-1.064-5.589-1.447C208.54,85.551,204.676,84.749,204.676,84.749L204.676,84.749z"
				/>
		</g>
		<g>
			<defs>
				<path id="SVGID_23_" d="M127.765,76.322c2.235,1.867,5.333,3.056,9.912,4.437c4.991,1.507,7.442,1.097,9.933,1.47
					c2.793,0.418,11.383,1.935,17.242,2.373c5.995,0.449,18.547,0.051,25.458,0.864c15.221,1.788,26.442,7.732,26.442,7.732
					s10.947-5.147,17.279-6.757c4.598-1.164,18.693-3.248,18.693-3.248s-0.867-3.557-22.008-7.955
					c-13.833-2.881-26.43-2.244-36.299-1.914c-7.335,0.244-21.034,3.494-28.259,4.781c-4.256,0.76-13.385,2.924-17.707,3.08
					c-2.812,0.103-4.841,0.4-11.099-1.312c-2.217-0.606-7.087-2.304-8.758-3.739C128.407,75.977,127.578,76.165,127.765,76.322"/>
			</defs>
			<use xlink:href="#SVGID_23_"  overflow="visible" fill="#FFFFFF"/>
			<clipPath id="SVGID_25_">
				<use xlink:href="#SVGID_23_"  overflow="visible"/>
			</clipPath>
			<path clip-path="url(#SVGID_25_)" fill="#FFFFFF" d="M204.676,84.749l0.021,0.026c0,0,0.312-0.229,0.762-0.547
				c0.449-0.316,1.033-0.722,1.576-1.07c0.773-0.493,2.255-1.396,2.259-1.398l-0.02-0.029l-0.004,0.035
				c0.002,0,0.988,0.146,2.141,0.323c1.153,0.179,2.471,0.39,3.125,0.521c0.853,0.17,2.577,0.594,4.088,0.971
				c1.51,0.38,2.806,0.715,2.808,0.715l0.008-0.033l-0.014-0.031c0,0-2.22,1.069-2.871,1.396c-0.88,0.441-3.267,1.653-3.267,1.653
				l0.016,0.03l0.008-0.033c-0.002,0-1.036-0.266-2.254-0.58c-1.216-0.313-2.613-0.676-3.335-0.867
				c-1.178-0.312-5.041-1.113-5.041-1.113L204.676,84.749l0.021,0.026L204.676,84.749l-0.007,0.033c0.003,0,0.966,0.2,2.079,0.438
				c1.112,0.24,2.373,0.52,2.958,0.674c1.442,0.383,5.59,1.447,5.59,1.447l0.013,0.006l0.011-0.008c0-0.002,0.596-0.302,1.303-0.658
				c0.707-0.358,1.524-0.772,1.965-0.994c0.324-0.164,1.041-0.514,1.677-0.82c0.635-0.309,1.188-0.575,1.189-0.578l0.085-0.038
				l-0.09-0.022c-0.001,0-5.189-1.343-6.899-1.688c-1.316-0.264-5.271-0.846-5.271-0.846l-0.012-0.002l-0.012,0.006
				c0,0.002-1.483,0.906-2.259,1.402c-1.088,0.697-2.341,1.617-2.341,1.617l-0.063,0.047l0.076,0.017L204.676,84.749L204.676,84.749
				z"/>
		</g>
		<g>
			<defs>
				<path id="SVGID_26_" d="M127.765,76.322c2.235,1.867,5.333,3.056,9.912,4.437c4.991,1.507,7.442,1.097,9.933,1.47
					c2.793,0.418,11.383,1.935,17.242,2.373c5.995,0.449,18.547,0.051,25.458,0.864c15.221,1.788,26.442,7.732,26.442,7.732
					s10.947-5.147,17.279-6.757c4.598-1.164,18.693-3.248,18.693-3.248s-0.867-3.557-22.008-7.955
					c-13.833-2.881-26.43-2.244-36.299-1.914c-7.335,0.244-21.034,3.494-28.259,4.781c-4.256,0.76-13.385,2.924-17.707,3.08
					c-2.812,0.103-4.841,0.4-11.099-1.312c-2.217-0.606-7.087-2.304-8.758-3.739C128.407,75.977,127.578,76.165,127.765,76.322"/>
			</defs>
			<use xlink:href="#SVGID_26_"  overflow="visible" fill="#FFFFFF"/>
			<clipPath id="SVGID_27_">
				<use xlink:href="#SVGID_26_"  overflow="visible"/>
			</clipPath>
			<path clip-path="url(#SVGID_27_)" fill="#FFFFFF" d="M196.885,80.768c0,0,0.659-0.746,1.612-1.699
				c0.875-0.877,1.39-1.303,1.39-1.303s4.414-0.14,6.364-0.024c4.471,0.259,9.054,0.749,9.054,0.749s-1.777,0.91-3.334,1.74
				c-1.893,1.01-2.697,1.5-2.697,1.5s-3.885-0.371-6.582-0.656C201.482,80.947,196.885,80.768,196.885,80.768L196.885,80.768z"/>
		</g>
		<g>
			<defs>
				<path id="SVGID_29_" d="M127.765,76.322c2.235,1.867,5.333,3.056,9.912,4.437c4.991,1.507,7.442,1.097,9.933,1.47
					c2.793,0.418,11.383,1.935,17.242,2.373c5.995,0.449,18.547,0.051,25.458,0.864c15.221,1.788,26.442,7.732,26.442,7.732
					s10.947-5.147,17.279-6.757c4.598-1.164,18.693-3.248,18.693-3.248s-0.867-3.557-22.008-7.955
					c-13.833-2.881-26.43-2.244-36.299-1.914c-7.335,0.244-21.034,3.494-28.259,4.781c-4.256,0.76-13.385,2.924-17.707,3.08
					c-2.812,0.103-4.841,0.4-11.099-1.312c-2.217-0.606-7.087-2.304-8.758-3.739C128.407,75.977,127.578,76.165,127.765,76.322"/>
			</defs>
			<use xlink:href="#SVGID_29_"  overflow="visible" fill="#FFFFFF"/>
			<clipPath id="SVGID_30_">
				<use xlink:href="#SVGID_29_"  overflow="visible"/>
			</clipPath>
			<path clip-path="url(#SVGID_30_)" fill="#FFFFFF" d="M196.885,80.768l0.025,0.022c0.001,0,0.658-0.744,1.61-1.699
				c0.876-0.875,1.388-1.297,1.389-1.299l-0.022-0.026l0.002,0.034c0.001,0,0.557-0.018,1.364-0.034
				c0.806-0.019,1.861-0.035,2.858-0.035c0.807,0,1.577,0.012,2.138,0.043c2.235,0.131,4.498,0.319,6.202,0.475
				c1.704,0.154,2.847,0.277,2.851,0.277l0.003-0.035l-0.016-0.031c0,0-1.778,0.912-3.335,1.741c-1.892,1.009-2.696,1.5-2.698,1.502
				l0.018,0.028l0.004-0.035c-0.002,0-0.971-0.092-2.28-0.221c-1.309-0.127-2.955-0.293-4.303-0.434
				c-1.214-0.127-5.81-0.309-5.81-0.309V80.768l0.025,0.022L196.885,80.768l-0.002,0.033c0.003,0,1.15,0.047,2.451,0.106
				c1.299,0.062,2.751,0.138,3.355,0.2c2.697,0.283,6.583,0.658,6.583,0.658h0.011l0.01-0.007c0,0,0.199-0.124,0.636-0.372
				c0.438-0.248,1.11-0.623,2.058-1.127c0.777-0.414,1.611-0.85,2.25-1.182c0.639-0.331,1.083-0.561,1.083-0.561l0.104-0.053
				l-0.114-0.013c0,0-4.585-0.487-9.056-0.749c-0.564-0.033-1.335-0.045-2.142-0.045c-1.993,0-4.226,0.07-4.226,0.07h-0.012
				l-0.008,0.01c-0.001,0-0.517,0.426-1.395,1.302c-0.952,0.956-1.612,1.702-1.612,1.702l-0.047,0.055l0.071,0.002L196.885,80.768
				L196.885,80.768z"/>
		</g>
		<g>
			<defs>
				<path id="SVGID_31_" d="M127.765,76.322c2.235,1.867,5.333,3.056,9.912,4.437c4.991,1.507,7.442,1.097,9.933,1.47
					c2.793,0.418,11.383,1.935,17.242,2.373c5.995,0.449,18.547,0.051,25.458,0.864c15.221,1.788,26.442,7.732,26.442,7.732
					s10.947-5.147,17.279-6.757c4.598-1.164,18.693-3.248,18.693-3.248s-0.867-3.557-22.008-7.955
					c-13.833-2.881-26.43-2.244-36.299-1.914c-7.335,0.244-21.034,3.494-28.259,4.781c-4.256,0.76-13.385,2.924-17.707,3.08
					c-2.812,0.103-4.841,0.4-11.099-1.312c-2.217-0.606-7.087-2.304-8.758-3.739C128.407,75.977,127.578,76.165,127.765,76.322"/>
			</defs>
			<use xlink:href="#SVGID_31_"  overflow="visible" fill="#FFFFFF"/>
			<clipPath id="SVGID_33_">
				<use xlink:href="#SVGID_31_"  overflow="visible"/>
			</clipPath>
			<path clip-path="url(#SVGID_33_)" fill="#FFFFFF" d="M221.441,84.261c0,0,2.678-1.267,3.888-1.766
				c0.85-0.353,3.708-1.256,3.708-1.256s3.593,1.052,4.865,1.475c1.654,0.55,6.384,2.591,6.384,2.591s-4.561,1.299-5.244,1.543
				c-0.93,0.334-3.034,1.143-3.034,1.143s-4.081-1.521-5.465-2.08C225.413,85.457,221.441,84.261,221.441,84.261L221.441,84.261z"/>
		</g>
		<g>
			<defs>
				<path id="SVGID_35_" d="M127.765,76.322c2.235,1.867,5.333,3.056,9.912,4.437c4.991,1.507,7.442,1.097,9.933,1.47
					c2.793,0.418,11.383,1.935,17.242,2.373c5.995,0.449,18.547,0.051,25.458,0.864c15.221,1.788,26.442,7.732,26.442,7.732
					s10.947-5.147,17.279-6.757c4.598-1.164,18.693-3.248,18.693-3.248s-0.867-3.557-22.008-7.955
					c-13.833-2.881-26.43-2.244-36.299-1.914c-7.335,0.244-21.034,3.494-28.259,4.781c-4.256,0.76-13.385,2.924-17.707,3.08
					c-2.812,0.103-4.841,0.4-11.099-1.312c-2.217-0.606-7.087-2.304-8.758-3.739C128.407,75.977,127.578,76.165,127.765,76.322"/>
			</defs>
			<use xlink:href="#SVGID_35_"  overflow="visible" fill="#FFFFFF"/>
			<clipPath id="SVGID_37_">
				<use xlink:href="#SVGID_35_"  overflow="visible"/>
			</clipPath>
			<path clip-path="url(#SVGID_37_)" fill="#FFFFFF" d="M221.441,84.261l0.014,0.028c0.002,0,0.67-0.314,1.49-0.691
				c0.82-0.38,1.792-0.82,2.396-1.072c0.423-0.172,1.351-0.488,2.171-0.758c0.82-0.271,1.532-0.496,1.533-0.496l-0.009-0.031
				l-0.011,0.031c0.003,0,0.898,0.264,1.956,0.58c1.058,0.315,2.273,0.686,2.908,0.896c0.825,0.274,2.421,0.922,3.811,1.5
				c1.39,0.579,2.569,1.089,2.572,1.091l0.013-0.033l-0.009-0.033c0,0.002-4.56,1.297-5.247,1.543
				c-0.929,0.336-3.034,1.145-3.034,1.145l0.012,0.031l0.011-0.031c-0.001,0-1.02-0.381-2.213-0.832
				c-1.192-0.449-2.559-0.97-3.251-1.248c-1.133-0.453-5.103-1.65-5.103-1.65L221.441,84.261l0.014,0.028L221.441,84.261
				l-0.01,0.033c0.002,0,0.993,0.298,2.126,0.654c1.135,0.354,2.409,0.769,2.972,0.993c1.385,0.558,5.466,2.08,5.466,2.08
				l0.012,0.004l0.011-0.004c0.002,0,0.526-0.203,1.168-0.446c0.643-0.243,1.402-0.528,1.865-0.694
				c0.341-0.122,1.653-0.508,2.876-0.861c1.226-0.355,2.363-0.68,2.367-0.682l0.091-0.025l-0.087-0.039c0,0-4.731-2.039-6.389-2.59
				c-1.272-0.425-4.865-1.478-4.865-1.478l-0.009-0.004l-0.011,0.004c-0.001,0-2.856,0.903-3.711,1.258
				c-1.212,0.502-3.888,1.767-3.888,1.767l-0.082,0.039l0.085,0.024L221.441,84.261L221.441,84.261z"/>
		</g>
		<g>
			<defs>
				<path id="SVGID_39_" d="M127.765,76.322c2.235,1.867,5.333,3.056,9.912,4.437c4.991,1.507,7.442,1.097,9.933,1.47
					c2.793,0.418,11.383,1.935,17.242,2.373c5.995,0.449,18.547,0.051,25.458,0.864c15.221,1.788,26.442,7.732,26.442,7.732
					s10.947-5.147,17.279-6.757c4.598-1.164,18.693-3.248,18.693-3.248s-0.867-3.557-22.008-7.955
					c-13.833-2.881-26.43-2.244-36.299-1.914c-7.335,0.244-21.034,3.494-28.259,4.781c-4.256,0.76-13.385,2.924-17.707,3.08
					c-2.812,0.103-4.841,0.4-11.099-1.312c-2.217-0.606-7.087-2.304-8.758-3.739C128.407,75.977,127.578,76.165,127.765,76.322"/>
			</defs>
			<use xlink:href="#SVGID_39_"  overflow="visible" fill="#FFFFFF"/>
			<clipPath id="SVGID_40_">
				<use xlink:href="#SVGID_39_"  overflow="visible"/>
			</clipPath>
			<path clip-path="url(#SVGID_40_)" fill="#FFFFFF" d="M215.252,78.489c0,0,2.981-1.485,4.186-1.95
				c2.599-0.998,5.051-1.781,5.051-1.781s5.321,0.846,6.635,1.109c2.089,0.42,9.162,2.525,9.162,2.525s-4.723,1.002-6.104,1.282
				c-0.966,0.196-5.145,1.563-5.145,1.563s-7.229-1.615-8.691-1.918C219.153,79.075,215.252,78.489,215.252,78.489L215.252,78.489z"
				/>
		</g>
		<g>
			<defs>
				<path id="SVGID_41_" d="M127.765,76.322c2.235,1.867,5.333,3.056,9.912,4.437c4.991,1.507,7.442,1.097,9.933,1.47
					c2.793,0.418,11.383,1.935,17.242,2.373c5.995,0.449,18.547,0.051,25.458,0.864c15.221,1.788,26.442,7.732,26.442,7.732
					s10.947-5.147,17.279-6.757c4.598-1.164,18.693-3.248,18.693-3.248s-0.867-3.557-22.008-7.955
					c-13.833-2.881-26.43-2.244-36.299-1.914c-7.335,0.244-21.034,3.494-28.259,4.781c-4.256,0.76-13.385,2.924-17.707,3.08
					c-2.812,0.103-4.841,0.4-11.099-1.312c-2.217-0.606-7.087-2.304-8.758-3.739C128.407,75.977,127.578,76.165,127.765,76.322"/>
			</defs>
			<use xlink:href="#SVGID_41_"  overflow="visible" fill="#FFFFFF"/>
			<clipPath id="SVGID_43_">
				<use xlink:href="#SVGID_41_"  overflow="visible"/>
			</clipPath>
			<path clip-path="url(#SVGID_43_)" fill="#FFFFFF" d="M215.252,78.489l0.016,0.03c0.002-0.002,0.744-0.371,1.64-0.799
				c0.896-0.431,1.942-0.919,2.542-1.148c1.299-0.5,2.561-0.945,3.498-1.264c0.939-0.322,1.551-0.519,1.552-0.519l-0.011-0.033
				l-0.006,0.034c0.003,0.001,1.33,0.211,2.825,0.455c1.494,0.245,3.152,0.521,3.808,0.652c1.042,0.211,3.334,0.843,5.362,1.422
				c1.014,0.291,1.964,0.564,2.66,0.769c0.696,0.206,1.136,0.335,1.138,0.335l0.009-0.031l-0.008-0.035
				c-0.001,0.002-1.18,0.252-2.533,0.537c-1.354,0.285-2.879,0.606-3.57,0.746c-0.973,0.197-5.148,1.564-5.149,1.564l0.011,0.033
				l0.008-0.035c0,0-7.229-1.615-8.692-1.917c-1.194-0.247-5.094-0.831-5.095-0.833L215.252,78.489l0.016,0.03L215.252,78.489
				l-0.004,0.034c0.001,0,0.974,0.146,2.098,0.324c1.124,0.176,2.398,0.383,2.992,0.506c0.73,0.15,2.903,0.631,4.892,1.072
				c0.997,0.221,1.945,0.434,2.646,0.588c0.7,0.156,1.15,0.256,1.152,0.256l0.008,0.004l0.011-0.004c0,0,1.043-0.342,2.208-0.707
				c1.166-0.365,2.453-0.758,2.932-0.854c1.382-0.28,6.104-1.281,6.104-1.281l0.133-0.028l-0.13-0.037c0,0-7.072-2.104-9.165-2.525
				c-1.314-0.266-6.635-1.111-6.635-1.111h-0.009l-0.008,0.002c0,0-2.453,0.782-5.054,1.782c-1.207,0.466-4.187,1.95-4.188,1.95
				l-0.096,0.049l0.107,0.018L215.252,78.489L215.252,78.489z"/>
		</g>
		<g>
			<defs>
				<path id="SVGID_44_" d="M127.765,76.322c2.235,1.867,5.333,3.056,9.912,4.437c4.991,1.507,7.442,1.097,9.933,1.47
					c2.793,0.418,11.383,1.935,17.242,2.373c5.995,0.449,18.547,0.051,25.458,0.864c15.221,1.788,26.442,7.732,26.442,7.732
					s10.947-5.147,17.279-6.757c4.598-1.164,18.693-3.248,18.693-3.248s-0.867-3.557-22.008-7.955
					c-13.833-2.881-26.43-2.244-36.299-1.914c-7.335,0.244-21.034,3.494-28.259,4.781c-4.256,0.76-13.385,2.924-17.707,3.08
					c-2.812,0.103-4.841,0.4-11.099-1.312c-2.217-0.606-7.087-2.304-8.758-3.739C128.407,75.977,127.578,76.165,127.765,76.322"/>
			</defs>
			<use xlink:href="#SVGID_44_"  overflow="visible" fill="#FFFFFF"/>
			<clipPath id="SVGID_45_">
				<use xlink:href="#SVGID_44_"  overflow="visible"/>
			</clipPath>
			<path clip-path="url(#SVGID_45_)" fill="#FFFFFF" d="M209.829,90.482c0,0,1.544-0.897,2.629-1.596
				c0.775-0.494,2.844-1.566,2.844-1.566s2.996,0.928,4.261,1.365c1.949,0.676,4.39,1.678,4.39,1.678s-3.959,2.1-4.609,2.425
				c-0.881,0.444-2.619,0.92-2.619,0.92s-1.208-0.95-2.65-1.335C212.899,92.062,209.829,90.482,209.829,90.482L209.829,90.482z"/>
		</g>
		<g>
			<defs>
				<path id="SVGID_46_" d="M127.765,76.322c2.235,1.867,5.333,3.056,9.912,4.437c4.991,1.507,7.442,1.097,9.933,1.47
					c2.793,0.418,11.383,1.935,17.242,2.373c5.995,0.449,18.547,0.051,25.458,0.864c15.221,1.788,26.442,7.732,26.442,7.732
					s10.947-5.147,17.279-6.757c4.598-1.164,18.693-3.248,18.693-3.248s-0.867-3.557-22.008-7.955
					c-13.833-2.881-26.43-2.244-36.299-1.914c-7.335,0.244-21.034,3.494-28.259,4.781c-4.256,0.76-13.385,2.924-17.707,3.08
					c-2.812,0.103-4.841,0.4-11.099-1.312c-2.217-0.606-7.087-2.304-8.758-3.739C128.407,75.977,127.578,76.165,127.765,76.322"/>
			</defs>
			<use xlink:href="#SVGID_46_"  overflow="visible" fill="#FFFFFF"/>
			<clipPath id="SVGID_47_">
				<use xlink:href="#SVGID_46_"  overflow="visible"/>
			</clipPath>
			<path clip-path="url(#SVGID_47_)" fill="#FFFFFF" d="M209.829,90.482l0.018,0.031c0,0,1.543-0.899,2.631-1.597
				c0.385-0.248,1.096-0.64,1.708-0.972c0.614-0.328,1.131-0.596,1.131-0.598l-0.015-0.029l-0.011,0.033
				c0.002,0,0.75,0.232,1.657,0.52c0.906,0.285,1.971,0.628,2.602,0.846c0.974,0.338,2.072,0.758,2.927,1.094
				c0.854,0.334,1.463,0.582,1.464,0.584l0.012-0.031l-0.015-0.03c-0.002,0.002-0.991,0.524-2.062,1.09s-2.223,1.175-2.548,1.336
				c-0.437,0.222-1.09,0.449-1.634,0.624c-0.544,0.174-0.976,0.292-0.977,0.292l0.009,0.033l0.021-0.026
				c-0.001,0-1.211-0.955-2.662-1.341c-0.583-0.155-1.646-0.627-2.56-1.059c-0.913-0.435-1.679-0.827-1.68-0.827L209.829,90.482
				l0.018,0.031L209.829,90.482l-0.016,0.031c0.002,0,3.069,1.578,4.253,1.893c0.717,0.189,1.377,0.521,1.859,0.808
				c0.48,0.285,0.78,0.521,0.781,0.521l0.012,0.014l0.018-0.007c0.001,0,1.735-0.474,2.625-0.921
				c0.648-0.325,4.609-2.428,4.61-2.428l0.065-0.033l-0.068-0.027c0,0-2.443-1.003-4.394-1.68c-1.265-0.438-4.26-1.364-4.26-1.364
				l-0.015-0.004l-0.011,0.006c-0.001,0-2.069,1.071-2.847,1.569c-0.543,0.35-1.201,0.748-1.721,1.061
				c-0.522,0.312-0.907,0.536-0.907,0.536l-0.054,0.03l0.055,0.029L209.829,90.482L209.829,90.482z"/>
		</g>
		<g>
			<defs>
				<path id="SVGID_48_" d="M127.765,76.322c2.235,1.867,5.333,3.056,9.912,4.437c4.991,1.507,7.442,1.097,9.933,1.47
					c2.793,0.418,11.383,1.935,17.242,2.373c5.995,0.449,18.547,0.051,25.458,0.864c15.221,1.788,26.442,7.732,26.442,7.732
					s10.947-5.147,17.279-6.757c4.598-1.164,18.693-3.248,18.693-3.248s-0.867-3.557-22.008-7.955
					c-13.833-2.881-26.43-2.244-36.299-1.914c-7.335,0.244-21.034,3.494-28.259,4.781c-4.256,0.76-13.385,2.924-17.707,3.08
					c-2.812,0.103-4.841,0.4-11.099-1.312c-2.217-0.606-7.087-2.304-8.758-3.739C128.407,75.977,127.578,76.165,127.765,76.322"/>
			</defs>
			<use xlink:href="#SVGID_48_"  overflow="visible" fill="#FFFFFF"/>
			<clipPath id="SVGID_49_">
				<use xlink:href="#SVGID_48_"  overflow="visible"/>
			</clipPath>
			<path clip-path="url(#SVGID_49_)" fill="#FFFFFF" d="M192.759,85.855c0,0,0.353-0.51,1.03-1.356
				c0.647-0.813,0.904-1.082,0.904-1.082s2.495,0.241,4.775,0.465c1.82,0.179,5.208,0.867,5.208,0.867s-0.977,0.646-1.571,1.16
				c-1.223,1.058-1.873,1.638-1.873,1.638s-2.705-0.556-4.176-0.806C195.857,86.535,192.759,85.855,192.759,85.855L192.759,85.855z"
				/>
		</g>
		<g>
			<defs>
				<path id="SVGID_50_" d="M127.765,76.322c2.235,1.867,5.333,3.056,9.912,4.437c4.991,1.507,7.442,1.097,9.933,1.47
					c2.793,0.418,11.383,1.935,17.242,2.373c5.995,0.449,18.547,0.051,25.458,0.864c15.221,1.788,26.442,7.732,26.442,7.732
					s10.947-5.147,17.279-6.757c4.598-1.164,18.693-3.248,18.693-3.248s-0.867-3.557-22.008-7.955
					c-13.833-2.881-26.43-2.244-36.299-1.914c-7.335,0.244-21.034,3.494-28.259,4.781c-4.256,0.76-13.385,2.924-17.707,3.08
					c-2.812,0.103-4.841,0.4-11.099-1.312c-2.217-0.606-7.087-2.304-8.758-3.739C128.407,75.977,127.578,76.165,127.765,76.322"/>
			</defs>
			<use xlink:href="#SVGID_50_"  overflow="visible" fill="#FFFFFF"/>
			<clipPath id="SVGID_51_">
				<use xlink:href="#SVGID_50_"  overflow="visible"/>
			</clipPath>
			<path clip-path="url(#SVGID_51_)" fill="#FFFFFF" d="M192.759,85.855l0.028,0.021c0.002-0.002,0.354-0.51,1.029-1.357
				c0.648-0.812,0.901-1.076,0.903-1.078l-0.025-0.024l-0.002,0.035c0.001,0,0.623,0.06,1.533,0.147
				c0.908,0.088,2.102,0.207,3.241,0.314c0.909,0.091,2.211,0.307,3.284,0.5c1.075,0.193,1.92,0.367,1.92,0.367l0.007-0.033
				l-0.019-0.029c-0.001,0-0.979,0.648-1.575,1.163c-1.223,1.06-1.872,1.64-1.872,1.64l0.023,0.024l0.008-0.032
				c0,0-2.706-0.559-4.178-0.809c-0.599-0.102-1.673-0.323-2.597-0.518c-0.924-0.195-1.697-0.365-1.698-0.365L192.759,85.855
				l0.028,0.021L192.759,85.855l-0.008,0.035c0.002,0,3.098,0.678,4.3,0.883c0.736,0.127,1.779,0.328,2.64,0.498
				c0.858,0.17,1.533,0.311,1.536,0.311l0.015,0.004l0.013-0.013c0.002-0.003,0.65-0.58,1.873-1.64
				c0.589-0.51,1.565-1.156,1.567-1.158l0.068-0.045l-0.08-0.016c-0.002,0-3.389-0.689-5.211-0.867
				c-2.28-0.224-4.774-0.465-4.774-0.465l-0.017-0.002l-0.012,0.014c-0.001,0-0.258,0.269-0.907,1.082
				c-0.674,0.85-1.03,1.359-1.03,1.361l-0.029,0.041l0.048,0.012L192.759,85.855L192.759,85.855z"/>
		</g>
		<g>
			<defs>
				<path id="SVGID_52_" d="M127.765,76.322c2.235,1.867,5.333,3.056,9.912,4.437c4.991,1.507,7.442,1.097,9.933,1.47
					c2.793,0.418,11.383,1.935,17.242,2.373c5.995,0.449,18.547,0.051,25.458,0.864c15.221,1.788,26.442,7.732,26.442,7.732
					s10.947-5.147,17.279-6.757c4.598-1.164,18.693-3.248,18.693-3.248s-0.867-3.557-22.008-7.955
					c-13.833-2.881-26.43-2.244-36.299-1.914c-7.335,0.244-21.034,3.494-28.259,4.781c-4.256,0.76-13.385,2.924-17.707,3.08
					c-2.812,0.103-4.841,0.4-11.099-1.312c-2.217-0.606-7.087-2.304-8.758-3.739C128.407,75.977,127.578,76.165,127.765,76.322"/>
			</defs>
			<use xlink:href="#SVGID_52_"  overflow="visible" fill="#FFFFFF"/>
			<clipPath id="SVGID_53_">
				<use xlink:href="#SVGID_52_"  overflow="visible"/>
			</clipPath>
			<path clip-path="url(#SVGID_53_)" fill="#FFFFFF" d="M184.793,78.77c0,0,0.285-0.943,0.736-2.152
				c0.399-1.07,0.543-1.54,0.543-1.54s6.472-0.931,7.806-1.044c1.851-0.16,11.802-0.248,11.802-0.248s-2.292,1.46-3,1.963
				c-0.805,0.568-2.763,2.007-2.763,2.007s-7.407,0.386-8.891,0.55C189.818,78.438,184.793,78.77,184.793,78.77L184.793,78.77z"/>
		</g>
		<g>
			<defs>
				<path id="SVGID_54_" d="M127.765,76.322c2.235,1.867,5.333,3.056,9.912,4.437c4.991,1.507,7.442,1.097,9.933,1.47
					c2.793,0.418,11.383,1.935,17.242,2.373c5.995,0.449,18.547,0.051,25.458,0.864c15.221,1.788,26.442,7.732,26.442,7.732
					s10.947-5.147,17.279-6.757c4.598-1.164,18.693-3.248,18.693-3.248s-0.867-3.557-22.008-7.955
					c-13.833-2.881-26.43-2.244-36.299-1.914c-7.335,0.244-21.034,3.494-28.259,4.781c-4.256,0.76-13.385,2.924-17.707,3.08
					c-2.812,0.103-4.841,0.4-11.099-1.312c-2.217-0.606-7.087-2.304-8.758-3.739C128.407,75.977,127.578,76.165,127.765,76.322"/>
			</defs>
			<use xlink:href="#SVGID_54_"  overflow="visible" fill="#FFFFFF"/>
			<clipPath id="SVGID_55_">
				<use xlink:href="#SVGID_54_"  overflow="visible"/>
			</clipPath>
			<path clip-path="url(#SVGID_55_)" fill="#FFFFFF" d="M184.793,78.77l0.035,0.01c0-0.002,0.281-0.942,0.732-2.15
				c0.399-1.07,0.545-1.542,0.545-1.542l-0.033-0.01l0.004,0.03c0.004,0,1.618-0.229,3.403-0.478
				c1.784-0.247,3.737-0.507,4.401-0.565c0.924-0.078,3.875-0.14,6.593-0.182c1.359-0.021,2.662-0.037,3.623-0.048
				c0.961-0.011,1.581-0.017,1.584-0.017v-0.034l-0.019-0.028c0,0-2.291,1.46-3.002,1.962c-0.806,0.571-2.762,2.009-2.762,2.009
				l0.019,0.027v-0.035c-0.001,0-7.408,0.385-8.894,0.551c-0.605,0.068-2.162,0.186-3.569,0.283c-1.406,0.1-2.658,0.182-2.662,0.182
				L184.793,78.77l0.035,0.01L184.793,78.77l0.004,0.033c0,0,5.021-0.328,6.232-0.465c0.741-0.083,2.964-0.221,5-0.337
				c2.037-0.118,3.887-0.213,3.891-0.213l0.008-0.001l0.01-0.008c0,0,0.488-0.357,1.078-0.789c0.59-0.43,1.281-0.932,1.682-1.217
				c0.354-0.248,1.104-0.74,1.766-1.166c0.661-0.431,1.232-0.795,1.233-0.795l0.102-0.063h-0.12
				c-0.002,0.002-9.949,0.09-11.805,0.248c-1.335,0.114-7.806,1.045-7.807,1.045l-0.021,0.003l-0.007,0.021
				c0,0-0.144,0.471-0.542,1.539c-0.452,1.211-0.736,2.155-0.736,2.155l-0.014,0.046l0.05-0.004L184.793,78.77L184.793,78.77z"/>
		</g>
		<g>
			<defs>
				<path id="SVGID_56_" d="M127.765,76.322c2.235,1.867,5.333,3.056,9.912,4.437c4.991,1.507,7.442,1.097,9.933,1.47
					c2.793,0.418,11.383,1.935,17.242,2.373c5.995,0.449,18.547,0.051,25.458,0.864c15.221,1.788,26.442,7.732,26.442,7.732
					s10.947-5.147,17.279-6.757c4.598-1.164,18.693-3.248,18.693-3.248s-0.867-3.557-22.008-7.955
					c-13.833-2.881-26.43-2.244-36.299-1.914c-7.335,0.244-21.034,3.494-28.259,4.781c-4.256,0.76-13.385,2.924-17.707,3.08
					c-2.812,0.103-4.841,0.4-11.099-1.312c-2.217-0.606-7.087-2.304-8.758-3.739C128.407,75.977,127.578,76.165,127.765,76.322"/>
			</defs>
			<use xlink:href="#SVGID_56_"  overflow="visible" fill="#FFFFFF"/>
			<clipPath id="SVGID_57_">
				<use xlink:href="#SVGID_56_"  overflow="visible"/>
			</clipPath>
			<path clip-path="url(#SVGID_57_)" fill="#FFFFFF" d="M164.004,81.136l-2.283-1.253c0,0,3.687-0.932,5.005-1.158
				c1.716-0.3,7.075-1.524,7.075-1.524s0.212,0.823,0.39,1.394c0.305,0.979,0.349,1.23,0.349,1.23s-4.497,0.558-5.981,0.722
				C167.35,80.682,164.004,81.136,164.004,81.136L164.004,81.136z"/>
		</g>
		<g>
			<defs>
				<path id="SVGID_58_" d="M127.765,76.322c2.235,1.867,5.333,3.056,9.912,4.437c4.991,1.507,7.442,1.097,9.933,1.47
					c2.793,0.418,11.383,1.935,17.242,2.373c5.995,0.449,18.547,0.051,25.458,0.864c15.221,1.788,26.442,7.732,26.442,7.732
					s10.947-5.147,17.279-6.757c4.598-1.164,18.693-3.248,18.693-3.248s-0.867-3.557-22.008-7.955
					c-13.833-2.881-26.43-2.244-36.299-1.914c-7.335,0.244-21.034,3.494-28.259,4.781c-4.256,0.76-13.385,2.924-17.707,3.08
					c-2.812,0.103-4.841,0.4-11.099-1.312c-2.217-0.606-7.087-2.304-8.758-3.739C128.407,75.977,127.578,76.165,127.765,76.322"/>
			</defs>
			<use xlink:href="#SVGID_58_"  overflow="visible" fill="#FFFFFF"/>
			<clipPath id="SVGID_59_">
				<use xlink:href="#SVGID_58_"  overflow="visible"/>
			</clipPath>
			<path clip-path="url(#SVGID_59_)" fill="#FFFFFF" d="M164.004,81.136l0.017-0.03l-2.282-1.254l-0.017,0.031l0.009,0.033
				c0.003,0,0.921-0.232,2.007-0.493c1.085-0.262,2.338-0.553,2.995-0.667c1.718-0.298,7.076-1.521,7.076-1.521l-0.007-0.034
				l-0.034,0.01c0,0,0.212,0.821,0.393,1.396c0.151,0.487,0.238,0.793,0.288,0.979c0.049,0.185,0.059,0.244,0.06,0.244l0.033-0.006
				l-0.004-0.033c-0.002,0-1.124,0.14-2.434,0.299c-1.31,0.16-2.806,0.341-3.547,0.423c-1.21,0.135-4.555,0.59-4.555,0.59
				L164.004,81.136l0.017-0.03L164.004,81.136l0.005,0.035c0.001-0.002,0.836-0.114,1.824-0.246c0.987-0.13,2.126-0.276,2.73-0.345
				c1.484-0.166,5.981-0.723,5.981-0.723l0.037-0.004l-0.007-0.037c-0.001-0.002-0.045-0.254-0.351-1.232
				c-0.177-0.57-0.388-1.391-0.388-1.393l-0.009-0.032l-0.032,0.008c-0.003,0-1.339,0.306-2.894,0.649
				c-1.554,0.343-3.323,0.726-4.18,0.871c-1.321,0.23-5.006,1.16-5.006,1.16l-0.084,0.021l2.369,1.304l0.011-0.002L164.004,81.136
				L164.004,81.136z"/>
		</g>
		<g>
			<defs>
				<path id="SVGID_60_" d="M127.765,76.322c2.235,1.867,5.333,3.056,9.912,4.437c4.991,1.507,7.442,1.097,9.933,1.47
					c2.793,0.418,11.383,1.935,17.242,2.373c5.995,0.449,18.547,0.051,25.458,0.864c15.221,1.788,26.442,7.732,26.442,7.732
					s10.947-5.147,17.279-6.757c4.598-1.164,18.693-3.248,18.693-3.248s-0.867-3.557-22.008-7.955
					c-13.833-2.881-26.43-2.244-36.299-1.914c-7.335,0.244-21.034,3.494-28.259,4.781c-4.256,0.76-13.385,2.924-17.707,3.08
					c-2.812,0.103-4.841,0.4-11.099-1.312c-2.217-0.606-7.087-2.304-8.758-3.739C128.407,75.977,127.578,76.165,127.765,76.322"/>
			</defs>
			<use xlink:href="#SVGID_60_"  overflow="visible" fill="#FFFFFF"/>
			<clipPath id="SVGID_61_">
				<use xlink:href="#SVGID_60_"  overflow="visible"/>
			</clipPath>
			<path clip-path="url(#SVGID_61_)" fill="#FFFFFF" d="M183.517,83.15l0.672-2.342c0,0,3.86-0.123,5.178-0.125
				c1.744-0.002,7.469,0.086,7.469,0.086s-0.511,0.517-1.047,1.201c-0.606,0.779-1.143,1.447-1.143,1.447s-4.395-0.23-6.164-0.205
				C187.266,83.232,183.517,83.15,183.517,83.15L183.517,83.15z"/>
		</g>
		<g>
			<defs>
				<path id="SVGID_62_" d="M127.765,76.322c2.235,1.867,5.333,3.056,9.912,4.437c4.991,1.507,7.442,1.097,9.933,1.47
					c2.793,0.418,11.383,1.935,17.242,2.373c5.995,0.449,18.547,0.051,25.458,0.864c15.221,1.788,26.442,7.732,26.442,7.732
					s10.947-5.147,17.279-6.757c4.598-1.164,18.693-3.248,18.693-3.248s-0.867-3.557-22.008-7.955
					c-13.833-2.881-26.43-2.244-36.299-1.914c-7.335,0.244-21.034,3.494-28.259,4.781c-4.256,0.76-13.385,2.924-17.707,3.08
					c-2.812,0.103-4.841,0.4-11.099-1.312c-2.217-0.606-7.087-2.304-8.758-3.739C128.407,75.977,127.578,76.165,127.765,76.322"/>
			</defs>
			<use xlink:href="#SVGID_62_"  overflow="visible" fill="#FFFFFF"/>
			<clipPath id="SVGID_63_">
				<use xlink:href="#SVGID_62_"  overflow="visible"/>
			</clipPath>
			<path clip-path="url(#SVGID_63_)" fill="#FFFFFF" d="M183.517,83.15l0.033,0.011l0.672-2.343l-0.033-0.01l0.001,0.032
				c0.003,0,0.965-0.028,2.095-0.062c1.131-0.03,2.424-0.062,3.083-0.062h0.101c0.927,0,2.768,0.023,4.379,0.044
				c1.61,0.021,2.985,0.041,2.989,0.041V80.77l-0.024-0.025c-0.002,0.002-0.514,0.52-1.052,1.206
				c-0.605,0.778-1.141,1.446-1.142,1.448l0.028,0.021l0.001-0.033c0,0-3.948-0.206-5.868-0.206c-0.105,0-0.204,0-0.297,0.002
				c-0.118,0.002-0.262,0.002-0.423,0.002c-0.745,0-1.881-0.017-2.83-0.033s-1.709-0.033-1.712-0.033L183.517,83.15l0.033,0.011
				L183.517,83.15v0.035c0,0,3.051,0.064,4.542,0.064c0.162,0,0.305,0,0.425-0.003c0.092,0,0.19-0.002,0.295-0.002
				c0.958,0,2.424,0.052,3.651,0.103c1.227,0.053,2.21,0.104,2.213,0.106h0.017l0.011-0.017c0,0,0.538-0.668,1.144-1.444
				c0.535-0.685,1.043-1.199,1.043-1.201l0.058-0.056l-0.081-0.002c0,0-5.514-0.086-7.368-0.086h-0.101
				c-1.318,0.002-5.179,0.125-5.179,0.125h-0.024l-0.692,2.41l0.045,0.002L183.517,83.15L183.517,83.15z"/>
		</g>
		<g>
			<defs>
				<path id="SVGID_64_" d="M127.765,76.322c2.235,1.867,5.333,3.056,9.912,4.437c4.991,1.507,7.442,1.097,9.933,1.47
					c2.793,0.418,11.383,1.935,17.242,2.373c5.995,0.449,18.547,0.051,25.458,0.864c15.221,1.788,26.442,7.732,26.442,7.732
					s10.947-5.147,17.279-6.757c4.598-1.164,18.693-3.248,18.693-3.248s-0.867-3.557-22.008-7.955
					c-13.833-2.881-26.43-2.244-36.299-1.914c-7.335,0.244-21.034,3.494-28.259,4.781c-4.256,0.76-13.385,2.924-17.707,3.08
					c-2.812,0.103-4.841,0.4-11.099-1.312c-2.217-0.606-7.087-2.304-8.758-3.739C128.407,75.977,127.578,76.165,127.765,76.322"/>
			</defs>
			<use xlink:href="#SVGID_64_"  overflow="visible" fill="#FFFFFF"/>
			<clipPath id="SVGID_65_">
				<use xlink:href="#SVGID_64_"  overflow="visible"/>
			</clipPath>
			<path clip-path="url(#SVGID_65_)" fill="#FFFFFF" d="M167.788,83.552l-1.912-1.137l9.061-1.242c0,0,0.133,0.441,0.31,1.015
				c0.196,0.631,0.363,1.136,0.363,1.136s-2.279,0.004-3.961,0.116C170.434,83.523,167.788,83.552,167.788,83.552L167.788,83.552z"
				/>
		</g>
		<g>
			<defs>
				<path id="SVGID_66_" d="M127.765,76.322c2.235,1.867,5.333,3.056,9.912,4.437c4.991,1.507,7.442,1.097,9.933,1.47
					c2.793,0.418,11.383,1.935,17.242,2.373c5.995,0.449,18.547,0.051,25.458,0.864c15.221,1.788,26.442,7.732,26.442,7.732
					s10.947-5.147,17.279-6.757c4.598-1.164,18.693-3.248,18.693-3.248s-0.867-3.557-22.008-7.955
					c-13.833-2.881-26.43-2.244-36.299-1.914c-7.335,0.244-21.034,3.494-28.259,4.781c-4.256,0.76-13.385,2.924-17.707,3.08
					c-2.812,0.103-4.841,0.4-11.099-1.312c-2.217-0.606-7.087-2.304-8.758-3.739C128.407,75.977,127.578,76.165,127.765,76.322"/>
			</defs>
			<use xlink:href="#SVGID_66_"  overflow="visible" fill="#FFFFFF"/>
			<clipPath id="SVGID_67_">
				<use xlink:href="#SVGID_66_"  overflow="visible"/>
			</clipPath>
			<path clip-path="url(#SVGID_67_)" fill="#FFFFFF" d="M167.788,83.552l0.018-0.028l-1.827-1.086l8.964-1.229l-0.005-0.035
				l-0.032,0.013c0,0,0.132,0.44,0.309,1.013c0.196,0.633,0.365,1.136,0.365,1.136l0.031-0.011v-0.035c0,0-2.279,0.004-3.963,0.118
				c-0.605,0.043-1.571,0.068-2.385,0.087c-0.812,0.021-1.473,0.024-1.474,0.024L167.788,83.552l0.019-0.028L167.788,83.552v0.033
				c0.001,0,2.646-0.028,3.863-0.112c0.84-0.056,1.832-0.084,2.611-0.101c0.78-0.015,1.348-0.015,1.348-0.015h0.047l-0.014-0.045
				c-0.001-0.002-0.167-0.504-0.363-1.136c-0.177-0.573-0.31-1.013-0.31-1.013l-0.009-0.029l-9.187,1.26l2.004,1.191l0.009-0.002
				L167.788,83.552L167.788,83.552z"/>
		</g>
		<g>
			<defs>
				<path id="SVGID_68_" d="M127.765,76.322c2.235,1.867,5.333,3.056,9.912,4.437c4.991,1.507,7.442,1.097,9.933,1.47
					c2.793,0.418,11.383,1.935,17.242,2.373c5.995,0.449,18.547,0.051,25.458,0.864c15.221,1.788,26.442,7.732,26.442,7.732
					s10.947-5.147,17.279-6.757c4.598-1.164,18.693-3.248,18.693-3.248s-0.867-3.557-22.008-7.955
					c-13.833-2.881-26.43-2.244-36.299-1.914c-7.335,0.244-21.034,3.494-28.259,4.781c-4.256,0.76-13.385,2.924-17.707,3.08
					c-2.812,0.103-4.841,0.4-11.099-1.312c-2.217-0.606-7.087-2.304-8.758-3.739C128.407,75.977,127.578,76.165,127.765,76.322"/>
			</defs>
			<use xlink:href="#SVGID_68_"  overflow="visible" fill="#FFFFFF"/>
			<clipPath id="SVGID_69_">
				<use xlink:href="#SVGID_68_"  overflow="visible"/>
			</clipPath>
			<path clip-path="url(#SVGID_69_)" fill="#FFFFFF" d="M126.648,74.291c2.403,1.309,7.388,2.023,11.881,3.664
				c5.119,1.865,6.53,1.847,9.572,1.039c2.731-0.723,10.023-1.723,15.786-2.869c6.344-1.264,25.015-5.232,33.096-5.734
				c15.295-0.949,42.899,4.473,42.899,4.473s7.469,3.054,14.431,6.146c4.335,1.925-0.74,2.951-0.74,2.951s-3.049-3.487-22.082-7.794
				c-13.78-3.119-26.356-2.407-36.227-2.077c-7.335,0.244-21.033,3.493-28.259,4.781c-4.256,0.76-13.384,2.923-17.706,3.08
				c-2.813,0.104-4.656,1.09-12.13-0.995c-2.213-0.62-8.977-2.436-9.779-3.038C127.197,77.77,126.434,74.176,126.648,74.291"/>
		</g>
		<g>
			<defs>
				<path id="SVGID_70_" d="M127.765,76.322c2.235,1.867,5.333,3.056,9.912,4.437c4.991,1.507,7.442,1.097,9.933,1.47
					c2.793,0.418,11.383,1.935,17.242,2.373c5.995,0.449,18.547,0.051,25.458,0.864c15.221,1.788,26.442,7.732,26.442,7.732
					s10.947-5.147,17.279-6.757c4.598-1.164,18.693-3.248,18.693-3.248s-0.867-3.557-22.008-7.955
					c-13.833-2.881-26.43-2.244-36.299-1.914c-7.335,0.244-21.034,3.494-28.259,4.781c-4.256,0.76-13.385,2.924-17.707,3.08
					c-2.812,0.103-4.841,0.4-11.099-1.312c-2.217-0.606-7.087-2.304-8.758-3.739C128.407,75.977,127.578,76.165,127.765,76.322"/>
			</defs>
			<use xlink:href="#SVGID_70_"  overflow="visible" fill="#FFFFFF"/>
			<clipPath id="SVGID_71_">
				<use xlink:href="#SVGID_70_"  overflow="visible"/>
			</clipPath>
			<path clip-path="url(#SVGID_71_)" fill="#FFFFFF" d="M126.648,74.291l-0.017,0.031c2.417,1.312,7.397,2.027,11.886,3.664
				c3.07,1.119,4.811,1.562,6.37,1.562c1.043,0,2.003-0.198,3.222-0.521c2.727-0.723,10.022-1.721,15.785-2.869
				c6.343-1.262,25.016-5.232,33.091-5.733c1.23-0.077,2.539-0.112,3.908-0.112c7.821,0,17.567,1.146,25.357,2.291
				c3.895,0.574,7.302,1.147,9.735,1.576c1.215,0.217,2.188,0.396,2.857,0.521c0.668,0.126,1.032,0.195,1.032,0.195l0.007-0.033
				l-0.013,0.029c0.001,0.004,0.467,0.192,1.276,0.527c2.427,1.004,7.934,3.303,13.155,5.619c1.296,0.574,1.735,1.068,1.731,1.452
				c0.006,0.448-0.602,0.821-1.224,1.063c-0.62,0.244-1.239,0.37-1.241,0.37l0.007,0.033l0.026-0.022
				c-0.01-0.011-3.066-3.498-22.098-7.807c-8.481-1.918-16.506-2.387-23.724-2.387c-4.516,0-8.716,0.185-12.514,0.311
				c-7.342,0.245-21.04,3.494-28.264,4.782c-4.258,0.759-13.387,2.924-17.701,3.08c-1.408,0.052-2.568,0.323-4.305,0.323
				c-1.744,0-4.071-0.274-7.813-1.32c-1.107-0.309-3.352-0.916-5.42-1.523c-2.066-0.604-3.963-1.215-4.349-1.506
				c-0.007-0.005-0.042-0.062-0.072-0.148c-0.23-0.62-0.699-2.83-0.697-3.342l0.005-0.072l0.003-0.01l-0.015-0.012v0.018
				l0.015-0.006l-0.015-0.013v0.019v-0.014l-0.008,0.012l0.008,0.002v-0.014l-0.008,0.012L126.648,74.291l0.016-0.03l-0.025-0.006
				l-0.055,0.054l-0.008,0.092c0.001,0.307,0.154,1.149,0.328,1.939c0.087,0.395,0.18,0.774,0.261,1.064
				c0.041,0.146,0.078,0.268,0.112,0.357c0.036,0.094,0.06,0.148,0.095,0.18c0.415,0.312,2.301,0.912,4.371,1.52
				c2.069,0.607,4.313,1.216,5.419,1.525c3.747,1.046,6.083,1.32,7.833,1.32c1.744,0,2.909-0.271,4.307-0.324
				c4.329-0.155,13.457-2.32,17.711-3.08c7.225-1.288,20.926-4.537,28.253-4.782c3.799-0.126,7.998-0.31,12.512-0.31
				c7.214,0,15.234,0.469,23.706,2.388c9.515,2.153,15.033,4.101,18.171,5.511c1.568,0.703,2.543,1.273,3.124,1.667
				c0.292,0.194,0.484,0.349,0.603,0.451c0.121,0.103,0.166,0.153,0.166,0.153l0.011,0.017l0.021-0.003
				c0.001-0.002,0.625-0.128,1.25-0.376s1.263-0.612,1.269-1.127c-0.004-0.439-0.473-0.938-1.772-1.515
				c-6.963-3.093-14.432-6.146-14.432-6.146l-0.003-0.002h-0.004c-0.001,0-23.339-4.584-38.995-4.584
				c-1.37,0-2.682,0.033-3.913,0.109c-8.086,0.504-26.756,4.475-33.101,5.734c-5.761,1.148-13.051,2.145-15.788,2.872
				c-1.22,0.323-2.171,0.519-3.206,0.519c-1.546,0-3.277-0.439-6.347-1.559c-4.497-1.64-9.484-2.357-11.877-3.661L126.648,74.291
				L126.648,74.291z"/>
		</g>
		<g>
			<defs>
				<path id="SVGID_72_" d="M127.765,76.322c2.235,1.867,5.333,3.056,9.912,4.437c4.991,1.507,7.442,1.097,9.933,1.47
					c2.793,0.418,11.383,1.935,17.242,2.373c5.995,0.449,18.547,0.051,25.458,0.864c15.221,1.788,26.442,7.732,26.442,7.732
					s10.947-5.147,17.279-6.757c4.598-1.164,18.693-3.248,18.693-3.248s-0.867-3.557-22.008-7.955
					c-13.833-2.881-26.43-2.244-36.299-1.914c-7.335,0.244-21.034,3.494-28.259,4.781c-4.256,0.76-13.385,2.924-17.707,3.08
					c-2.812,0.103-4.841,0.4-11.099-1.312c-2.217-0.606-7.087-2.304-8.758-3.739C128.407,75.977,127.578,76.165,127.765,76.322"/>
			</defs>
			<use xlink:href="#SVGID_72_"  overflow="visible" fill="#FFFFFF"/>
			<clipPath id="SVGID_73_">
				<use xlink:href="#SVGID_72_"  overflow="visible"/>
			</clipPath>
			<path clip-path="url(#SVGID_73_)" fill="#FFFFFF" d="M174.937,81.173c0,0-0.049-0.14-0.209-0.698
				c-0.122-0.429-0.188-0.65-0.188-0.65s2.981-0.379,5.1-0.602c3.656-0.38,5.153-0.453,5.153-0.453l-0.605,2.039
				c0,0-2.419,0.102-4.601,0.182C177.836,81.053,174.937,81.173,174.937,81.173L174.937,81.173z"/>
		</g>
		<g>
			<defs>
				<path id="SVGID_74_" d="M127.765,76.322c2.235,1.867,5.333,3.056,9.912,4.437c4.991,1.507,7.442,1.097,9.933,1.47
					c2.793,0.418,11.383,1.935,17.242,2.373c5.995,0.449,18.547,0.051,25.458,0.864c15.221,1.788,26.442,7.732,26.442,7.732
					s10.947-5.147,17.279-6.757c4.598-1.164,18.693-3.248,18.693-3.248s-0.867-3.557-22.008-7.955
					c-13.833-2.881-26.43-2.244-36.299-1.914c-7.335,0.244-21.034,3.494-28.259,4.781c-4.256,0.76-13.385,2.924-17.707,3.08
					c-2.812,0.103-4.841,0.4-11.099-1.312c-2.217-0.606-7.087-2.304-8.758-3.739C128.407,75.977,127.578,76.165,127.765,76.322"/>
			</defs>
			<use xlink:href="#SVGID_74_"  overflow="visible" fill="#FFFFFF"/>
			<clipPath id="SVGID_75_">
				<use xlink:href="#SVGID_74_"  overflow="visible"/>
			</clipPath>
			<path clip-path="url(#SVGID_75_)" fill="#FFFFFF" d="M174.937,81.173l0.033-0.012c-0.002,0-0.05-0.138-0.209-0.699
				c-0.121-0.426-0.188-0.647-0.188-0.647l-0.033,0.01l0.006,0.035c0.001,0,0.745-0.096,1.754-0.217
				c1.01-0.123,2.285-0.273,3.344-0.386c1.827-0.188,3.116-0.304,3.947-0.368c0.831-0.065,1.205-0.086,1.206-0.086l-0.003-0.033
				l-0.032-0.009l-0.606,2.038l0.033,0.01l-0.001-0.033c-0.001,0-0.604,0.023-1.481,0.06c-0.878,0.036-2.028,0.081-3.119,0.12
				c-1.752,0.062-4.652,0.186-4.652,0.186L174.937,81.173l0.033-0.012L174.937,81.173l0.002,0.035c0,0,0.724-0.031,1.668-0.067
				c0.944-0.039,2.106-0.086,2.981-0.117c2.183-0.078,4.601-0.182,4.601-0.182h0.026l0.625-2.109l-0.049,0.002
				c-0.001,0-1.499,0.074-5.156,0.457c-2.12,0.221-5.1,0.6-5.1,0.6l-0.04,0.006l0.011,0.036c0,0.002,0.067,0.224,0.188,0.647
				c0.159,0.562,0.209,0.705,0.209,0.705l0.008,0.023l0.026-0.001V81.173L174.937,81.173z"/>
		</g>
		<g>
			<defs>
				<path id="SVGID_76_" d="M127.765,76.322c2.235,1.867,5.333,3.056,9.912,4.437c4.991,1.507,7.442,1.097,9.933,1.47
					c2.793,0.418,11.383,1.935,17.242,2.373c5.995,0.449,18.547,0.051,25.458,0.864c15.221,1.788,26.442,7.732,26.442,7.732
					s10.947-5.147,17.279-6.757c4.598-1.164,18.693-3.248,18.693-3.248s-0.867-3.557-22.008-7.955
					c-13.833-2.881-26.43-2.244-36.299-1.914c-7.335,0.244-21.034,3.494-28.259,4.781c-4.256,0.76-13.385,2.924-17.707,3.08
					c-2.812,0.103-4.841,0.4-11.099-1.312c-2.217-0.606-7.087-2.304-8.758-3.739C128.407,75.977,127.578,76.165,127.765,76.322"/>
			</defs>
			<use xlink:href="#SVGID_76_"  overflow="visible" fill="#FFFFFF"/>
			<clipPath id="SVGID_77_">
				<use xlink:href="#SVGID_76_"  overflow="visible"/>
			</clipPath>
			<path clip-path="url(#SVGID_77_)" fill="#FFFFFF" d="M176.019,84.882c0,0-0.038-0.233-0.174-0.741
				c-0.112-0.422-0.235-0.817-0.235-0.817s1.968-0.117,3.306-0.151c1.662-0.044,4.65-0.021,4.65-0.021s-0.195,0.688-0.237,0.83
				c-0.113,0.379-0.29,0.988-0.29,0.988s-2.321,0-3.813,0C177.991,84.971,176.019,84.882,176.019,84.882L176.019,84.882z"/>
		</g>
		<g>
			<defs>
				<path id="SVGID_78_" d="M127.765,76.322c2.235,1.867,5.333,3.056,9.912,4.437c4.991,1.507,7.442,1.097,9.933,1.47
					c2.793,0.418,11.383,1.935,17.242,2.373c5.995,0.449,18.547,0.051,25.458,0.864c15.221,1.788,26.442,7.732,26.442,7.732
					s10.947-5.147,17.279-6.757c4.598-1.164,18.693-3.248,18.693-3.248s-0.867-3.557-22.008-7.955
					c-13.833-2.881-26.43-2.244-36.299-1.914c-7.335,0.244-21.034,3.494-28.259,4.781c-4.256,0.76-13.385,2.924-17.707,3.08
					c-2.812,0.103-4.841,0.4-11.099-1.312c-2.217-0.606-7.087-2.304-8.758-3.739C128.407,75.977,127.578,76.165,127.765,76.322"/>
			</defs>
			<use xlink:href="#SVGID_78_"  overflow="visible" fill="#FFFFFF"/>
			<clipPath id="SVGID_79_">
				<use xlink:href="#SVGID_78_"  overflow="visible"/>
			</clipPath>
			<path clip-path="url(#SVGID_79_)" fill="#FFFFFF" d="M176.019,84.882l0.032-0.005c0,0-0.037-0.236-0.171-0.743
				c-0.115-0.425-0.237-0.821-0.237-0.821l-0.033,0.011l0.003,0.034c0.003,0,1.967-0.116,3.303-0.151
				c0.812-0.021,1.941-0.029,2.884-0.029c0.985,0,1.764,0.009,1.766,0.009V83.15l-0.033-0.01c0,0.004-0.193,0.688-0.236,0.83
				c-0.113,0.379-0.291,0.988-0.291,0.988l0.033,0.01v-0.035c0,0-2.321,0-3.813,0.002h-0.029c-1.234,0-3.174-0.084-3.177-0.084
				L176.019,84.882l0.032-0.005L176.019,84.882l-0.003,0.035c0.001,0,1.943,0.085,3.181,0.085h0.029c1.492,0,3.81,0,3.813,0h0.025
				l0.008-0.023c0-0.002,0.176-0.61,0.291-0.989c0.042-0.142,0.236-0.83,0.236-0.83l0.013-0.042l-0.045-0.002
				c0,0-0.781-0.006-1.766-0.006c-0.943,0-2.072,0.006-2.886,0.027c-1.338,0.036-3.305,0.152-3.305,0.152l-0.045,0.002l0.014,0.04
				c0,0.002,0.122,0.397,0.234,0.819c0.135,0.506,0.172,0.738,0.172,0.738l0.004,0.025l0.027,0.002L176.019,84.882L176.019,84.882z"
				/>
		</g>
		<g>
			<defs>
				<path id="SVGID_80_" d="M127.765,76.322c2.235,1.867,5.333,3.056,9.912,4.437c4.991,1.507,7.442,1.097,9.933,1.47
					c2.793,0.418,11.383,1.935,17.242,2.373c5.995,0.449,18.547,0.051,25.458,0.864c15.221,1.788,26.442,7.732,26.442,7.732
					s10.947-5.147,17.279-6.757c4.598-1.164,18.693-3.248,18.693-3.248s-0.867-3.557-22.008-7.955
					c-13.833-2.881-26.43-2.244-36.299-1.914c-7.335,0.244-21.034,3.494-28.259,4.781c-4.256,0.76-13.385,2.924-17.707,3.08
					c-2.812,0.103-4.841,0.4-11.099-1.312c-2.217-0.606-7.087-2.304-8.758-3.739C128.407,75.977,127.578,76.165,127.765,76.322"/>
			</defs>
			<use xlink:href="#SVGID_80_"  overflow="visible" fill="#FFFFFF"/>
			<clipPath id="SVGID_81_">
				<use xlink:href="#SVGID_80_"  overflow="visible"/>
			</clipPath>
			<path clip-path="url(#SVGID_81_)" fill="#FFFFFF" d="M155.086,83.406c0,0-1.989-0.318-2.45-0.377
				c-0.683-0.086-1.337-0.273-1.337-0.273s6.597-0.771,7.917-0.998c1.716-0.299,4.788-0.622,4.788-0.622l1.872,1.247
				c0,0-3.669,0.483-5.825,0.697C158.821,83.202,155.086,83.406,155.086,83.406L155.086,83.406z"/>
		</g>
		<g>
			<defs>
				<path id="SVGID_82_" d="M127.765,76.322c2.235,1.867,5.333,3.056,9.912,4.437c4.991,1.507,7.442,1.097,9.933,1.47
					c2.793,0.418,11.383,1.935,17.242,2.373c5.995,0.449,18.547,0.051,25.458,0.864c15.221,1.788,26.442,7.732,26.442,7.732
					s10.947-5.147,17.279-6.757c4.598-1.164,18.693-3.248,18.693-3.248s-0.867-3.557-22.008-7.955
					c-13.833-2.881-26.43-2.244-36.299-1.914c-7.335,0.244-21.034,3.494-28.259,4.781c-4.256,0.76-13.385,2.924-17.707,3.08
					c-2.812,0.103-4.841,0.4-11.099-1.312c-2.217-0.606-7.087-2.304-8.758-3.739C128.407,75.977,127.578,76.165,127.765,76.322"/>
			</defs>
			<use xlink:href="#SVGID_82_"  overflow="visible" fill="#FFFFFF"/>
			<clipPath id="SVGID_83_">
				<use xlink:href="#SVGID_82_"  overflow="visible"/>
			</clipPath>
			<path clip-path="url(#SVGID_83_)" fill="#FFFFFF" d="M155.086,83.406l0.006-0.031c-0.002,0-1.988-0.322-2.452-0.381
				c-0.679-0.083-1.33-0.271-1.33-0.271l-0.011,0.032l0.004,0.035c0.001,0,6.597-0.771,7.919-1.001
				c0.857-0.146,2.055-0.305,3.035-0.422c0.983-0.116,1.75-0.197,1.75-0.197l-0.004-0.035l-0.019,0.029l1.872,1.247l0.019-0.029
				l-0.004-0.032c-0.001,0-0.917,0.119-2.104,0.269c-1.187,0.147-2.643,0.319-3.72,0.427c-0.614,0.062-1.856,0.145-2.942,0.209
				c-1.087,0.068-2.019,0.121-2.021,0.121L155.086,83.406l0.006-0.031L155.086,83.406l0.002,0.035c0,0,3.735-0.205,4.967-0.327
				c2.157-0.216,5.826-0.697,5.826-0.697l0.089-0.011l-1.958-1.307H164c0,0-3.071,0.324-4.79,0.623
				c-0.656,0.113-2.637,0.365-4.451,0.586c-1.813,0.221-3.46,0.414-3.463,0.414l-0.169,0.02l0.164,0.049
				c0,0,0.656,0.186,1.341,0.273c0.46,0.056,2.447,0.375,2.449,0.377h0.004h0.004L155.086,83.406L155.086,83.406z"/>
		</g>
		<g>
			<defs>
				<path id="SVGID_84_" d="M127.765,76.322c2.235,1.867,5.333,3.056,9.912,4.437c4.991,1.507,7.442,1.097,9.933,1.47
					c2.793,0.418,11.383,1.935,17.242,2.373c5.995,0.449,18.547,0.051,25.458,0.864c15.221,1.788,26.442,7.732,26.442,7.732
					s10.947-5.147,17.279-6.757c4.598-1.164,18.693-3.248,18.693-3.248s-0.867-3.557-22.008-7.955
					c-13.833-2.881-26.43-2.244-36.299-1.914c-7.335,0.244-21.034,3.494-28.259,4.781c-4.256,0.76-13.385,2.924-17.707,3.08
					c-2.812,0.103-4.841,0.4-11.099-1.312c-2.217-0.606-7.087-2.304-8.758-3.739C128.407,75.977,127.578,76.165,127.765,76.322"/>
			</defs>
			<use xlink:href="#SVGID_84_"  overflow="visible" fill="#FFFFFF"/>
			<clipPath id="SVGID_85_">
				<use xlink:href="#SVGID_84_"  overflow="visible"/>
			</clipPath>
			<path clip-path="url(#SVGID_85_)" fill="#FFFFFF" d="M162.143,84.457c0,0-1.594-0.293-2.055-0.35
				c-0.685-0.084-0.799-0.148-0.799-0.148s2.248-0.132,3.745-0.234c1.738-0.117,4.74-0.203,4.74-0.203l2.232,1.283
				c0,0-2.487,0.084-4.175,0.057C164.596,84.842,162.143,84.457,162.143,84.457L162.143,84.457z"/>
		</g>
		<g>
			<defs>
				<path id="SVGID_86_" d="M127.765,76.322c2.235,1.867,5.333,3.056,9.912,4.437c4.991,1.507,7.442,1.097,9.933,1.47
					c2.793,0.418,11.383,1.935,17.242,2.373c5.995,0.449,18.547,0.051,25.458,0.864c15.221,1.788,26.442,7.732,26.442,7.732
					s10.947-5.147,17.279-6.757c4.598-1.164,18.693-3.248,18.693-3.248s-0.867-3.557-22.008-7.955
					c-13.833-2.881-26.43-2.244-36.299-1.914c-7.335,0.244-21.034,3.494-28.259,4.781c-4.256,0.76-13.385,2.924-17.707,3.08
					c-2.812,0.103-4.841,0.4-11.099-1.312c-2.217-0.606-7.087-2.304-8.758-3.739C128.407,75.977,127.578,76.165,127.765,76.322"/>
			</defs>
			<use xlink:href="#SVGID_86_"  overflow="visible" fill="#FFFFFF"/>
			<clipPath id="SVGID_87_">
				<use xlink:href="#SVGID_86_"  overflow="visible"/>
			</clipPath>
			<path clip-path="url(#SVGID_87_)" fill="#FFFFFF" d="M162.143,84.457l0.006-0.035c0,0-1.594-0.29-2.057-0.35
				c-0.342-0.043-0.54-0.078-0.652-0.106l-0.11-0.028l-0.023-0.008l-0.017,0.029l0.002,0.035c0,0,2.247-0.135,3.744-0.234
				c0.87-0.059,2.054-0.109,3.022-0.146c0.967-0.035,1.716-0.057,1.718-0.057l-0.002-0.035l-0.016,0.028l2.232,1.284l0.016-0.029
				V84.77c-0.003,0-1.843,0.062-3.434,0.062c-0.254,0-0.506-0.001-0.74-0.006c-0.615-0.01-1.536-0.11-2.304-0.209
				c-0.766-0.1-1.378-0.195-1.378-0.195L162.143,84.457l-0.006,0.033c0,0,2.452,0.385,3.692,0.402
				c0.236,0.004,0.485,0.006,0.742,0.006c1.592,0,3.436-0.062,3.436-0.062l0.121-0.004l-2.345-1.349h-0.01
				c0,0-3.003,0.089-4.741,0.205c-1.498,0.103-3.74,0.234-3.745,0.234l-0.121,0.008l0.105,0.058c0.01,0.004,0.126,0.065,0.811,0.149
				c0.46,0.059,2.051,0.351,2.054,0.351L162.143,84.457L162.143,84.457z"/>
		</g>
	</g>
	<path fill="#FFFFFF" d="M127.765,76.322l-0.156,0.186c2.284,1.908,5.413,3.1,9.997,4.484c5.022,1.515,7.53,1.107,9.966,1.476
		c2.79,0.418,11.384,1.935,17.262,2.376c6.018,0.449,18.568,0.053,25.447,0.861c7.586,0.893,14.18,2.82,18.875,4.525
		c2.348,0.853,4.22,1.648,5.505,2.231c0.643,0.291,1.138,0.528,1.472,0.692c0.334,0.166,0.505,0.256,0.506,0.256l0.106,0.058
		l0.109-0.052c0.003,0,0.683-0.32,1.807-0.829c3.368-1.519,10.715-4.714,15.429-5.909c2.278-0.578,6.957-1.392,11.052-2.058
		c2.048-0.333,3.954-0.629,5.345-0.843c1.394-0.213,2.272-0.342,2.275-0.342l0.262-0.039l-0.063-0.261
		c-0.032-0.11-0.317-1.032-3.204-2.487c-2.89-1.455-8.408-3.446-18.993-5.65c-8.536-1.773-16.601-2.216-23.841-2.216
		c-4.522,0-8.723,0.172-12.516,0.299c-7.382,0.247-21.077,3.499-28.293,4.785c-2.135,0.38-5.48,1.11-8.832,1.766
		c-3.35,0.655-6.71,1.234-8.84,1.312c-0.908,0.033-1.729,0.086-2.627,0.086c-1.895,0-4.164-0.23-8.399-1.389
		c-1.097-0.303-2.864-0.875-4.558-1.552c-1.692-0.672-3.32-1.46-4.106-2.14c-0.145-0.112-0.277-0.112-0.415-0.117
		c-0.159,0.002-0.326,0.025-0.47,0.072c-0.073,0.022-0.139,0.05-0.204,0.092l-0.1,0.089c-0.032,0.039-0.068,0.106-0.068,0.188
		c0,0.107,0.064,0.193,0.114,0.233L127.765,76.322l0.156-0.187l-0.115,0.138h0.174c0-0.075-0.046-0.129-0.059-0.138l-0.115,0.138
		h0.174h-0.181l0.143,0.115l0.038-0.115h-0.181l0.143,0.115l-0.062-0.052l0.046,0.065l0.016-0.016l-0.062-0.051l0.046,0.066
		c0.004-0.006,0.076-0.038,0.157-0.055c0.082-0.021,0.177-0.033,0.253-0.031l0.099,0.008l0.017,0.004l0.025-0.061l-0.042,0.051
		l0.017,0.01l0.025-0.061l-0.042,0.051c0.885,0.755,2.526,1.533,4.243,2.222c1.714,0.685,3.49,1.26,4.611,1.565
		c4.258,1.166,6.586,1.408,8.526,1.408c0.919,0,1.746-0.056,2.645-0.089c2.192-0.079,5.556-0.661,8.917-1.317
		c3.357-0.656,6.704-1.389,8.824-1.765c7.233-1.291,20.937-4.538,28.223-4.778c3.796-0.127,7.99-0.299,12.5-0.299
		c7.22,0,15.249,0.44,23.743,2.209c10.558,2.194,16.044,4.183,18.873,5.606c1.414,0.711,2.163,1.28,2.551,1.66
		c0.193,0.19,0.296,0.329,0.35,0.417l0.046,0.087l0.005,0.014l0.106-0.034l-0.108,0.024l0.002,0.01l0.106-0.034l-0.108,0.024
		l0.234-0.06l-0.034-0.236c-0.006,0-14.091,2.079-18.721,3.252c-6.375,1.619-17.312,6.768-17.32,6.77l0.102,0.221l0.115-0.215
		c-0.016-0.008-11.26-5.963-26.528-7.76c-6.942-0.814-19.499-0.414-25.468-0.863c-5.839-0.438-14.425-1.951-17.226-2.373
		c-2.545-0.377-4.937,0.035-9.896-1.459c-4.573-1.379-7.641-2.562-9.827-4.392L127.765,76.322"/>
	<g>
		<g>
			<path id="SVGID_18_" fill="#FFFFFF" d="M121.994,71.643h-6.361l-3.268-8.552h-4.161v5.944l0,0l0,0
				c0,0.879,0.06,1.699,0.356,2.607h-6.301c0.298-0.908,0.356-1.729,0.356-2.607V54.842l0,0l0,0c0-0.879-0.059-1.698-0.356-2.608
				h15.068c2.377,0,3.775,1.213,3.775,3.76v3.944c0,1.729-0.685,2.911-2.943,3.244l0,0l0,0l0,0l2.467,6.399
				C120.954,70.4,121.4,71.098,121.994,71.643 M108.204,60.604L108.204,60.604h6.509c0.713,0,0.981-0.333,0.981-1.304v-3.275l0,0
				l0,0c0-0.97-0.268-1.303-0.981-1.303h-6.509V60.604"/>
		</g>
		<g>
			<defs>
				<path id="SVGID_88_" d="M121.994,71.643h-6.361l-3.268-8.552h-4.161v5.944l0,0l0,0c0,0.879,0.06,1.699,0.356,2.607h-6.301
					c0.298-0.908,0.356-1.729,0.356-2.607V54.842l0,0l0,0c0-0.879-0.059-1.698-0.356-2.608h15.068c2.377,0,3.775,1.213,3.775,3.76
					v3.944c0,1.729-0.685,2.911-2.943,3.244l0,0l0,0l0,0l2.467,6.399C120.954,70.4,121.4,71.098,121.994,71.643 M108.204,60.604
					L108.204,60.604h6.509c0.713,0,0.981-0.333,0.981-1.304v-3.275l0,0l0,0c0-0.97-0.268-1.303-0.981-1.303h-6.509V60.604"/>
			</defs>
			<use xlink:href="#SVGID_88_"  overflow="visible" fill="#FFFFFF"/>
			<clipPath id="SVGID_89_">
				<use xlink:href="#SVGID_88_"  overflow="visible"/>
			</clipPath>
			<g transform="matrix(1 0 0 1 -7.629395e-06 0)" display="none" clip-path="url(#SVGID_89_)">
			</g>
		</g>
	</g>
	<g>
		<g>
			<path id="SVGID_20_" fill="#FFFFFF" d="M94.384,71.643H83.149c-2.466,0-3.805-1.242-3.805-3.941V56.177
				c0-2.7,1.338-3.943,3.805-3.943h11.234c2.466,0,3.804,1.243,3.804,3.943V67.7C98.188,70.4,96.85,71.643,94.384,71.643
				 M84.933,68.004L84.933,68.004c0,0.88,0.267,1.152,1.069,1.152h5.528c0.803,0,1.07-0.272,1.07-1.152V55.873l0,0l0,0
				c0-0.88-0.267-1.152-1.07-1.152h-5.528c-0.803,0-1.069,0.272-1.069,1.152V68.004L84.933,68.004"/>
		</g>
		<g>
			<defs>
				<path id="SVGID_90_" d="M94.384,71.643H83.149c-2.466,0-3.805-1.242-3.805-3.941V56.177c0-2.7,1.338-3.943,3.805-3.943h11.234
					c2.466,0,3.804,1.243,3.804,3.943V67.7C98.188,70.4,96.85,71.643,94.384,71.643 M84.933,68.004L84.933,68.004
					c0,0.88,0.267,1.152,1.069,1.152h5.528c0.803,0,1.07-0.272,1.07-1.152V55.873l0,0l0,0c0-0.88-0.267-1.152-1.07-1.152h-5.528
					c-0.803,0-1.069,0.272-1.069,1.152V68.004L84.933,68.004"/>
			</defs>
			<use xlink:href="#SVGID_90_"  overflow="visible" fill="#FFFFFF"/>
			<clipPath id="SVGID_91_">
				<use xlink:href="#SVGID_90_"  overflow="visible"/>
			</clipPath>
			<g transform="matrix(1 0 0 1 0 0)" display="none" clip-path="url(#SVGID_91_)">
			</g>
		</g>
	</g>
	<g>
		<g>
			<path id="SVGID_22_" fill="#FFFFFF" d="M70.727,71.643h-6.301c0.297-0.908,0.357-1.729,0.357-2.606V54.721h-2.915
				c-0.831,0-2.05,0.06-2.941,0.454l0.476-2.941h16.346l0.475,2.941c-0.891-0.394-2.108-0.454-2.941-0.454H70.37v14.314l0,0l0,0
				C70.37,69.914,70.428,70.734,70.727,71.643"/>
		</g>
		<g>
			<defs>
				<path id="SVGID_92_" d="M70.727,71.643h-6.301c0.297-0.908,0.357-1.729,0.357-2.606V54.721h-2.915
					c-0.831,0-2.05,0.06-2.941,0.454l0.476-2.941h16.346l0.475,2.941c-0.891-0.394-2.108-0.454-2.941-0.454H70.37v14.314l0,0l0,0
					C70.37,69.914,70.428,70.734,70.727,71.643"/>
			</defs>
			<use xlink:href="#SVGID_92_"  overflow="visible" fill="#FFFFFF"/>
			<clipPath id="SVGID_93_">
				<use xlink:href="#SVGID_92_"  overflow="visible"/>
			</clipPath>
			<g display="none" clip-path="url(#SVGID_93_)">
			</g>
		</g>
	</g>
	<g>
		<g>
			<path id="SVGID_24_" fill="#FFFFFF" d="M52.033,71.643H40.796c-2.466,0-3.804-1.242-3.804-3.941V56.177
				c0-2.7,1.338-3.943,3.804-3.943h11.236c2.466,0,3.803,1.243,3.803,3.943V67.7C55.836,70.4,54.499,71.643,52.033,71.643
				 M42.581,68.004L42.581,68.004c0,0.88,0.267,1.152,1.07,1.152h5.527c0.803,0,1.071-0.272,1.071-1.152V55.873l0,0l0,0
				c0-0.88-0.268-1.152-1.071-1.152h-5.527c-0.803,0-1.07,0.272-1.07,1.152V68.004L42.581,68.004L42.581,68.004"/>
		</g>
		<g>
			<defs>
				<path id="SVGID_94_" d="M52.033,71.643H40.796c-2.466,0-3.804-1.242-3.804-3.941V56.177c0-2.7,1.338-3.943,3.804-3.943h11.236
					c2.466,0,3.803,1.243,3.803,3.943V67.7C55.836,70.4,54.499,71.643,52.033,71.643 M42.581,68.004L42.581,68.004
					c0,0.88,0.267,1.152,1.07,1.152h5.527c0.803,0,1.071-0.272,1.071-1.152V55.873l0,0l0,0c0-0.88-0.268-1.152-1.071-1.152h-5.527
					c-0.803,0-1.07,0.272-1.07,1.152V68.004L42.581,68.004L42.581,68.004"/>
			</defs>
			<use xlink:href="#SVGID_94_"  overflow="visible" fill="#FFFFFF"/>
			<clipPath id="SVGID_95_">
				<use xlink:href="#SVGID_94_"  overflow="visible"/>
			</clipPath>
			<g transform="matrix(1 0 0 1 0 0)" display="none" clip-path="url(#SVGID_95_)">
			</g>
		</g>
	</g>
	<g>
		<g>
			<defs>
				<path id="SVGID_96_" d="M7.242,71.643L7.242,71.643c0.265-0.809,0.342-1.547,0.354-2.319
					C7.583,70.096,7.507,70.834,7.242,71.643 M7.596,54.555c-0.012-0.773-0.089-1.511-0.354-2.321l0,0
					C7.507,53.044,7.583,53.782,7.596,54.555"/>
			</defs>
			<use xlink:href="#SVGID_96_"  overflow="visible" fill="#FFFFFF"/>
			<clipPath id="SVGID_97_">
				<use xlink:href="#SVGID_96_"  overflow="visible"/>
			</clipPath>
			<g clip-path="url(#SVGID_97_)">
			</g>
		</g>
	</g>
	<g>
		<g>
			<path id="SVGID_28_" fill="#FFFFFF" d="M32.803,71.643h-6.122c0.297-0.908,0.356-1.729,0.356-2.606V55.024h-0.059l-6.51,16.619
				h-3.863l-6.391-16.619h-0.058v14.011l0,0l0,0c0,0.879,0.058,1.699,0.356,2.607h-3.27c0.265-0.81,0.342-1.547,0.354-2.32
				c0.002-0.096,0.003-0.19,0.003-0.287V54.842l0,0l0,0c0-0.096-0.001-0.191-0.003-0.287c-0.012-0.773-0.089-1.511-0.354-2.321h7.49
				l5.439,14.101l5.528-14.101h7.104c-0.297,0.91-0.357,1.729-0.357,2.608v14.193l0,0l0,0
				C32.445,69.914,32.505,70.734,32.803,71.643"/>
		</g>
		<g>
			<defs>
				<path id="SVGID_98_" d="M32.803,71.643h-6.122c0.297-0.908,0.356-1.729,0.356-2.606V55.024h-0.059l-6.51,16.619h-3.863
					l-6.391-16.619h-0.058v14.011l0,0l0,0c0,0.879,0.058,1.699,0.356,2.607h-3.27c0.265-0.81,0.342-1.547,0.354-2.32
					c0.002-0.096,0.003-0.19,0.003-0.287V54.842l0,0l0,0c0-0.096-0.001-0.191-0.003-0.287c-0.012-0.773-0.089-1.511-0.354-2.321
					h7.49l5.439,14.101l5.528-14.101h7.104c-0.297,0.91-0.357,1.729-0.357,2.608v14.193l0,0l0,0
					C32.445,69.914,32.505,70.734,32.803,71.643"/>
			</defs>
			<use xlink:href="#SVGID_98_"  overflow="visible" fill="#FFFFFF"/>
			<clipPath id="SVGID_99_">
				<use xlink:href="#SVGID_98_"  overflow="visible"/>
			</clipPath>
			<g transform="matrix(1 0 0 1 -4.768372e-07 0)" display="none" clip-path="url(#SVGID_99_)">
			</g>
		</g>
	</g>
	<g>
		<g>
			<defs>
				<path id="SVGID_100_" d="M231.959,69.645c0.771,0,1.047-0.252,1.067-1.053C233.006,69.393,232.729,69.645,231.959,69.645
					 M233.026,56.26c-0.02-0.8-0.296-1.052-1.067-1.052C232.729,55.208,233.006,55.46,233.026,56.26"/>
			</defs>
			<use xlink:href="#SVGID_100_"  overflow="visible" fill="#FFFFFF"/>
			<clipPath id="SVGID_101_">
				<use xlink:href="#SVGID_100_"  overflow="visible"/>
			</clipPath>
			<g transform="matrix(1 0 0 1 -1.525879e-05 0)" clip-path="url(#SVGID_101_)">
			</g>
		</g>
	</g>
	<g>
		<g>
			<path id="SVGID_32_" fill="#FFFFFF" d="M237.375,71.406h-17.767c0.132-0.635,0.163-1.243,0.163-1.885V55.329l0,0l0,0
				c0-0.879-0.059-1.698-0.356-2.608h15.396c2.468,0,3.804,1.243,3.804,3.942v11.524C238.616,69.712,238.19,70.771,237.375,71.406
				 M225.36,69.645L225.36,69.645h6.599l0,0c0.771,0,1.047-0.252,1.067-1.053c0.002-0.031,0.002-0.066,0.002-0.101V56.36l0,0l0,0
				c0-0.035,0-0.067-0.002-0.101c-0.02-0.8-0.296-1.052-1.067-1.052l0,0h-6.599V69.645"/>
		</g>
		<g>
			<defs>
				<path id="SVGID_102_" d="M237.375,71.406h-17.767c0.132-0.635,0.163-1.243,0.163-1.885V55.329l0,0l0,0
					c0-0.879-0.059-1.698-0.356-2.608h15.396c2.468,0,3.804,1.243,3.804,3.942v11.524C238.616,69.712,238.19,70.771,237.375,71.406
					 M225.36,69.645L225.36,69.645h6.599l0,0c0.771,0,1.047-0.252,1.067-1.053c0.002-0.031,0.002-0.066,0.002-0.101V56.36l0,0l0,0
					c0-0.035,0-0.067-0.002-0.101c-0.02-0.8-0.296-1.052-1.067-1.052l0,0h-6.599V69.645"/>
			</defs>
			<use xlink:href="#SVGID_102_"  overflow="visible" fill="#FFFFFF"/>
			<clipPath id="SVGID_103_">
				<use xlink:href="#SVGID_102_"  overflow="visible"/>
			</clipPath>
			<g display="none" clip-path="url(#SVGID_103_)">
			</g>
		</g>
	</g>
	<g>
		<g>
			<path id="SVGID_34_" fill="#FFFFFF" d="M215.759,71.406h-15.527c0.131-0.635,0.164-1.243,0.164-1.885V55.329l0,0l0,0
				c0-0.879-0.061-1.698-0.357-2.608h6.302c-0.296,0.91-0.356,1.729-0.356,2.608v14.315h7.192c0.832,0,2.05-0.062,2.942-0.455
				L215.759,71.406"/>
		</g>
		<g>
			<defs>
				<path id="SVGID_104_" d="M215.759,71.406h-15.527c0.131-0.635,0.164-1.243,0.164-1.885V55.329l0,0l0,0
					c0-0.879-0.061-1.698-0.357-2.608h6.302c-0.296,0.91-0.356,1.729-0.356,2.608v14.315h7.192c0.832,0,2.05-0.062,2.942-0.455
					L215.759,71.406"/>
			</defs>
			<use xlink:href="#SVGID_104_"  overflow="visible" fill="#FFFFFF"/>
			<clipPath id="SVGID_105_">
				<use xlink:href="#SVGID_104_"  overflow="visible"/>
			</clipPath>
			<g transform="matrix(1 0 0 1 1.525879e-05 0)" display="none" clip-path="url(#SVGID_105_)">
			</g>
		</g>
	</g>
	<g>
		<g>
			<path id="SVGID_36_" fill="#FFFFFF" d="M196.334,71.406h-5.995l-2.993-7.828h-4.159v5.943l0,0l0,0c0,0.642,0.03,1.25,0.163,1.885
				h-5.915c0.131-0.635,0.163-1.243,0.163-1.885V55.329l0,0l0,0c0-0.879-0.06-1.698-0.356-2.608h15.069
				c2.377,0,3.773,1.213,3.773,3.761v3.942c0,1.729-0.683,2.912-2.942,3.246l0,0l0,0l0,0l2.467,6.398
				C195.806,70.561,196.045,71.007,196.334,71.406 M183.188,61.092L183.188,61.092h6.507c0.713,0,0.981-0.334,0.981-1.305v-3.275
				l0,0l0,0c0-0.97-0.268-1.304-0.981-1.304h-6.507V61.092"/>
		</g>
		<g>
			<defs>
				<path id="SVGID_106_" d="M196.334,71.406h-5.995l-2.993-7.828h-4.159v5.943l0,0l0,0c0,0.642,0.03,1.25,0.163,1.885h-5.915
					c0.131-0.635,0.163-1.243,0.163-1.885V55.329l0,0l0,0c0-0.879-0.06-1.698-0.356-2.608h15.069c2.377,0,3.773,1.213,3.773,3.761
					v3.942c0,1.729-0.683,2.912-2.942,3.246l0,0l0,0l0,0l2.467,6.398C195.806,70.561,196.045,71.007,196.334,71.406 M183.188,61.092
					L183.188,61.092h6.507c0.713,0,0.981-0.334,0.981-1.305v-3.275l0,0l0,0c0-0.97-0.268-1.304-0.981-1.304h-6.507V61.092"/>
			</defs>
			<use xlink:href="#SVGID_106_"  overflow="visible" fill="#FFFFFF"/>
			<clipPath id="SVGID_107_">
				<use xlink:href="#SVGID_106_"  overflow="visible"/>
			</clipPath>
			<g display="none" clip-path="url(#SVGID_107_)">
			</g>
		</g>
	</g>
	<g>
		<g>
			<path id="SVGID_38_" fill="#FFFFFF" d="M171.929,71.406h-16.361c-0.814-0.635-1.241-1.694-1.241-3.219V56.664
				c0-2.7,1.338-3.942,3.805-3.942h11.234c2.468,0,3.806,1.243,3.806,3.942v11.523C173.171,69.712,172.745,70.771,171.929,71.406
				 M159.916,68.491L159.916,68.491c0,0.88,0.267,1.153,1.069,1.153h5.528c0.803,0,1.069-0.273,1.069-1.153V56.36l0,0l0,0
				c0-0.879-0.266-1.152-1.069-1.152h-5.528c-0.802,0-1.069,0.273-1.069,1.152V68.491L159.916,68.491L159.916,68.491"/>
		</g>
		<g>
			<defs>
				<path id="SVGID_108_" d="M171.929,71.406h-16.361c-0.814-0.635-1.241-1.694-1.241-3.219V56.664c0-2.7,1.338-3.942,3.805-3.942
					h11.234c2.468,0,3.806,1.243,3.806,3.942v11.523C173.171,69.712,172.745,70.771,171.929,71.406 M159.916,68.491L159.916,68.491
					c0,0.88,0.267,1.153,1.069,1.153h5.528c0.803,0,1.069-0.273,1.069-1.153V56.36l0,0l0,0c0-0.879-0.266-1.152-1.069-1.152h-5.528
					c-0.802,0-1.069,0.273-1.069,1.152V68.491L159.916,68.491L159.916,68.491"/>
			</defs>
			<use xlink:href="#SVGID_108_"  overflow="visible" fill="#FFFFFF"/>
			<clipPath id="SVGID_109_">
				<use xlink:href="#SVGID_108_"  overflow="visible"/>
			</clipPath>
			<g transform="matrix(1 0 0 1 -1.525879e-05 -3.814697e-06)" display="none" clip-path="url(#SVGID_109_)">
			</g>
		</g>
	</g>
	<g>
		<g>
			<defs>
				<path id="SVGID_110_" d="M127.884,71.406L127.884,71.406l-4.14-15.076c-0.61-2.281-0.907-2.941-1.309-3.564
					c0.402,0.623,0.699,1.284,1.309,3.564L127.884,71.406"/>
			</defs>
			<use xlink:href="#SVGID_110_"  overflow="visible" fill="#FFFFFF"/>
			<clipPath id="SVGID_111_">
				<use xlink:href="#SVGID_110_"  overflow="visible"/>
			</clipPath>
			<g transform="matrix(1 0 0 1 0 0)" clip-path="url(#SVGID_111_)">
			</g>
		</g>
	</g>
	<g>
		<g>
			<path id="SVGID_42_" fill="#FFFFFF" d="M146.37,71.406h-6.028l-3.193-11.922h-0.059l-3.056,11.922h-6.15l-4.14-15.076
				c-0.61-2.281-0.907-2.941-1.309-3.564c-0.01-0.015-0.02-0.03-0.029-0.044h6.985c-0.208,0.606-0.268,1.061-0.268,1.485l0,0l0,0
				l0,0l0,0c0,0.607,0.09,1.213,0.327,2.124l3.032,11.616h0.059l3.893-15.225h4.399l3.954,15.225h0.06l2.883-11.556
				c0.149-0.638,0.356-1.638,0.356-2.305l0,0l0,0l0,0l0,0c0-0.576-0.06-1.031-0.207-1.364h3.863
				c-0.862,1.183-1.188,2.365-1.486,3.578L146.37,71.406"/>
		</g>
		<g>
			<defs>
				<path id="SVGID_112_" d="M146.37,71.406h-6.028l-3.193-11.922h-0.059l-3.056,11.922h-6.15l-4.14-15.076
					c-0.61-2.281-0.907-2.941-1.309-3.564c-0.01-0.015-0.02-0.03-0.029-0.044h6.985c-0.208,0.606-0.268,1.061-0.268,1.485l0,0l0,0
					l0,0l0,0c0,0.607,0.09,1.213,0.327,2.124l3.032,11.616h0.059l3.893-15.225h4.399l3.954,15.225h0.06l2.883-11.556
					c0.149-0.638,0.356-1.638,0.356-2.305l0,0l0,0l0,0l0,0c0-0.576-0.06-1.031-0.207-1.364h3.863
					c-0.862,1.183-1.188,2.365-1.486,3.578L146.37,71.406"/>
			</defs>
			<use xlink:href="#SVGID_112_"  overflow="visible" fill="#FFFFFF"/>
			<clipPath id="SVGID_113_">
				<use xlink:href="#SVGID_112_"  overflow="visible"/>
			</clipPath>
			<g display="none" clip-path="url(#SVGID_113_)">
			</g>
		</g>
	</g>
</g>
<line fill="none" stroke="#FFFFFF" stroke-width="1.5" stroke-miterlimit="10" x1="274.437" y1="39.584" x2="274.437" y2="86.285"/>
</svg>
