<?xml version="1.0" encoding="utf-8"?>
<!-- Generator: Adobe Illustrator 16.0.4, SVG Export Plug-In . SVG Version: 6.00 Build 0)  -->
<!DOCTYPE svg PUBLIC "-//W3C//DTD SVG 1.1//EN" "http://www.w3.org/Graphics/SVG/1.1/DTD/svg11.dtd">
<svg version="1.1" id="Layer_1" xmlns="http://www.w3.org/2000/svg" xmlns:xlink="http://www.w3.org/1999/xlink" x="0px" y="0px"
	 width="120px" height="122px" viewBox="0 0 120 122" enable-background="new 0 0 120 122" xml:space="preserve">
<rect x="-480" display="none" fill="#282828" width="600" height="126"/>
<radialGradient id="SVGID_1_" cx="155.6738" cy="-168.334" r="54.9001" gradientTransform="matrix(1 0 0 -1 -96 -108)" gradientUnits="userSpaceOnUse">
	<stop  offset="0" style="stop-color:#333333"/>
	<stop  offset="0" style="stop-color:#454545"/>
	<stop  offset="0" style="stop-color:#757575"/>
	<stop  offset="0" style="stop-color:#C1C1C1"/>
	<stop  offset="0" style="stop-color:#FFFFFF"/>
	<stop  offset="0.9503" style="stop-color:#FFFFFF"/>
	<stop  offset="1" style="stop-color:#FFFFFF"/>
</radialGradient>
<circle fill="url(#SVGID_1_)" stroke="#58595B" stroke-width="2" stroke-miterlimit="10" cx="59.674" cy="60.334" r="54.9"/>
<linearGradient id="SVGID_2_" gradientUnits="userSpaceOnUse" x1="122.6025" y1="-202.4922" x2="206.3896" y2="-202.4922" gradientTransform="matrix(1 0 0 -1 -96 -108)">
	<stop  offset="0" style="stop-color:#141414"/>
	<stop  offset="0.34" style="stop-color:#252626"/>
	<stop  offset="1" style="stop-color:#515254"/>
</linearGradient>
<path fill="url(#SVGID_2_)" d="M26.624,89.664l66.76-16.507c0,0,17.421,7.356,16.998,8.253
	c-1.536,3.255-13.188,33.566-49.501,34.398C24.572,116.643,26.624,89.664,26.624,89.664z"/>
<linearGradient id="SVGID_3_" gradientUnits="userSpaceOnUse" x1="122.624" y1="-168.0342" x2="160.0547" y2="-168.0342" gradientTransform="matrix(1 0 0 -1 -96 -108)">
	<stop  offset="0" style="stop-color:#141414"/>
	<stop  offset="0.34" style="stop-color:#252626"/>
	<stop  offset="1" style="stop-color:#515254"/>
</linearGradient>
<polygon fill="url(#SVGID_3_)" points="64.055,21.031 26.624,30.741 26.624,89.664 64.055,99.037 "/>
<linearGradient id="SVGID_4_" gradientUnits="userSpaceOnUse" x1="174.7227" y1="-129.1372" x2="174.7227" y2="-206.9341" gradientTransform="matrix(1 0 0 -1 -96 -108)">
	<stop  offset="0.3878" style="stop-color:#C7C8CA"/>
	<stop  offset="0.6693" style="stop-color:#F0F0F0"/>
</linearGradient>
<polygon fill="url(#SVGID_4_)" points="64.062,21.137 93.384,45.51 93.384,74.091 64.062,98.934 "/>
<linearGradient id="SVGID_5_" gradientUnits="userSpaceOnUse" x1="168.4434" y1="-167.8066" x2="182.1367" y2="-167.8066" gradientTransform="matrix(1 0 0 -1 -96 -108)">
	<stop  offset="0" style="stop-color:#000000"/>
	<stop  offset="0.2235" style="stop-color:#151415"/>
	<stop  offset="1" style="stop-color:#BEC0C2"/>
</linearGradient>
<polygon fill="url(#SVGID_5_)" points="72.443,40.442 72.443,79.171 86.137,69.798 86.137,50.064 "/>
<linearGradient id="SVGID_6_" gradientUnits="userSpaceOnUse" x1="168.7324" y1="-179.1436" x2="178.8293" y2="-184.2882" gradientTransform="matrix(1 0 0 -1 -96 -108)">
	<stop  offset="0" style="stop-color:#000000"/>
	<stop  offset="0" style="stop-color:#080809"/>
	<stop  offset="0.1249" style="stop-color:#202021"/>
	<stop  offset="0.3099" style="stop-color:#444446"/>
	<stop  offset="0.5324" style="stop-color:#626365"/>
	<stop  offset="0.7815" style="stop-color:#848689"/>
	<stop  offset="1" style="stop-color:#A7A9AC"/>
</linearGradient>
<polygon fill="url(#SVGID_6_)" points="72.443,79.171 86.137,69.798 73.118,70.389 "/>
<linearGradient id="SVGID_7_" gradientUnits="userSpaceOnUse" x1="171.2656" y1="-159.0371" x2="175.3322" y2="-153.2294" gradientTransform="matrix(1 0 0 -1 -96 -108)">
	<stop  offset="0.0581" style="stop-color:#000000"/>
	<stop  offset="0.1842" style="stop-color:#090909"/>
	<stop  offset="0.3929" style="stop-color:#222222"/>
	<stop  offset="0.6584" style="stop-color:#4B4B4B"/>
	<stop  offset="0.9673" style="stop-color:#848484"/>
	<stop  offset="1" style="stop-color:#8A8A8A"/>
</linearGradient>
<polygon fill="url(#SVGID_7_)" points="72.494,40.442 86.137,50.064 72.9,49.382 "/>
<g>
	<g>
		<g>
			
				<radialGradient id="SVGID_8_" cx="168.8496" cy="-162.5195" r="17.6476" gradientTransform="matrix(0.8859 0 0 -1.0624 -104.8592 -112.8232)" gradientUnits="userSpaceOnUse">
				<stop  offset="0" style="stop-color:#333333"/>
				<stop  offset="0" style="stop-color:#454545"/>
				<stop  offset="0" style="stop-color:#747575"/>
				<stop  offset="0" style="stop-color:#C0C0C1"/>
				<stop  offset="0" style="stop-color:#E4E5E6"/>
				<stop  offset="0.4592" style="stop-color:#CBCCCE"/>
				<stop  offset="0.97" style="stop-color:#ADAFB2"/>
			</radialGradient>
			<path fill="url(#SVGID_8_)" d="M43.652,82.15c-3.28-0.732-5.767-2.396-7.567-4.951c-1.942-2.733-2.886-6.28-2.886-10.729V65.04
				l1.794,0.101v2.25c0,3.323,0.81,5.976,2.467,8.008c1.485,1.894,3.464,3.098,6.001,3.584c2.488,0.479,4.683,0.133,6.534-1.09
				c2.324-1.535,3.526-4.115,3.526-7.682c0-6.889-3.259-10.328-9.229-10.316L41.708,59.9v-3.07l2.641-0.09
				c5.509-0.184,8.5-3.247,8.5-9.17c0-3.01-1.057-5.094-3.105-6.219c-1.596-0.876-3.507-1.083-5.702-0.655
				c-3.031,0.592-5.144,1.947-6.442,4.042c-1.261,2.04-1.881,4.98-1.881,8.86l-1.822,0.131c0-5.005,0.884-8.776,2.706-11.393
				c1.667-2.422,4.067-4.018,7.312-4.756c2.885-0.655,5.38-0.447,7.41,0.688c2.776,1.492,4.218,4.51,4.218,8.988
				c0,5.326-1.846,8.975-5.357,10.85c3.968,1.941,6.065,6.098,6.065,12.357c0,4.857-1.531,8.329-4.473,10.327
				C49.437,82.409,46.706,82.834,43.652,82.15z"/>
			
				<radialGradient id="SVGID_9_" cx="168.8506" cy="-162.5205" r="17.9289" gradientTransform="matrix(0.8859 0 0 -1.0624 -104.8592 -112.8232)" gradientUnits="userSpaceOnUse">
				<stop  offset="0" style="stop-color:#333333"/>
				<stop  offset="0" style="stop-color:#454545"/>
				<stop  offset="0" style="stop-color:#747575"/>
				<stop  offset="0" style="stop-color:#C0C0C1"/>
				<stop  offset="0" style="stop-color:#E4E5E6"/>
				<stop  offset="0.4592" style="stop-color:#CBCCCE"/>
				<stop  offset="0.97" style="stop-color:#ADAFB2"/>
			</radialGradient>
			<path fill="url(#SVGID_9_)" d="M46.352,82.771c-0.879,0-1.801-0.105-2.746-0.314c-3.317-0.742-5.844-2.396-7.717-5.059
				c-1.984-2.787-2.947-6.36-2.947-10.928v-1.756l2.312,0.131v2.545c0,3.271,0.782,5.817,2.392,7.791
				c1.475,1.879,3.389,3.022,5.855,3.492c2.449,0.471,4.599,0.116,6.371-1.051c2.25-1.491,3.393-3.984,3.393-7.413
				c0-6.64-3.008-10.006-8.938-10.006L41.45,60.21v-3.683l2.892-0.097c5.474-0.183,8.25-3.165,8.25-8.86
				c0-2.865-0.995-4.862-2.953-5.938c-1.528-0.838-3.4-1.05-5.554-0.63c-2.945,0.576-4.998,1.859-6.277,3.922
				c-1.23,1.989-1.829,4.827-1.829,8.674v0.293l-2.342,0.167V53.73c0-5.125,0.907-8.917,2.769-11.593
				c1.737-2.523,4.179-4.114,7.462-4.859c2.963-0.674,5.519-0.432,7.567,0.71c2.896,1.559,4.367,4.679,4.367,9.27
				c0,5.172-1.681,8.815-4.993,10.838c3.783,2.117,5.701,6.275,5.701,12.369c0,4.957-1.55,8.521-4.604,10.598
				C50.261,82.197,48.392,82.771,46.352,82.771z M33.458,65.364v1.106c0,4.413,0.923,7.855,2.824,10.527
				c1.794,2.549,4.222,4.135,7.417,4.85c3.021,0.674,5.702,0.228,7.947-1.324c2.883-1.959,4.344-5.342,4.344-10.06
				c0-6.092-1.985-10.153-5.905-12.07l-0.56-0.275l0.553-0.295c3.455-1.843,5.205-5.4,5.205-10.567c0-4.324-1.367-7.254-4.064-8.708
				c-1.955-1.088-4.405-1.311-7.259-0.663c-3.159,0.718-5.5,2.237-7.157,4.647c-1.744,2.502-2.611,6.06-2.65,10.867l1.311-0.092
				c0.029-3.84,0.66-6.706,1.928-8.754c1.364-2.197,3.525-3.559,6.609-4.163c2.255-0.44,4.228-0.211,5.851,0.678
				c2.161,1.187,3.254,3.374,3.254,6.501c0,6.01-3.024,9.288-8.749,9.48l-2.39,0.08v2.46l2.359-0.005
				c6.185,0,9.453,3.674,9.453,10.626c0,3.67-1.229,6.348-3.658,7.956c-1.876,1.235-4.139,1.612-6.703,1.12
				c-2.546-0.488-4.614-1.725-6.146-3.68c-1.705-2.088-2.535-4.777-2.535-8.217v-1.955L33.458,65.364z"/>
		</g>
	</g>
</g>
<g display="none">
	
		<text transform="matrix(1 0 0 1 -325.624 72.5781)" display="inline" fill="#606161" font-family="'WalkwaySemiBold'" font-size="45.9479">MEDIENTOOLS</text>
</g>
<text transform="matrix(0.9121 0 0 1 -229.229 90.5312)" display="none" fill="#212121" enable-background="new    " font-family="'Quicksand-Light'" font-size="11.3466">    CROSS-DIMENSIONAL COMMUNICATION</text>
</svg>
