<?xml version="1.0" encoding="utf-8"?>
<!-- Generator: Adobe Illustrator 16.0.4, SVG Export Plug-In . SVG Version: 6.00 Build 0)  -->
<!DOCTYPE svg PUBLIC "-//W3C//DTD SVG 1.1//EN" "http://www.w3.org/Graphics/SVG/1.1/DTD/svg11.dtd">
<svg version="1.1" id="Layer_1" xmlns="http://www.w3.org/2000/svg" xmlns:xlink="http://www.w3.org/1999/xlink" x="0px" y="0px"
	 width="510.5px" height="128.5px" viewBox="0 0 510.5 128.5" enable-background="new 0 0 510.5 128.5" xml:space="preserve">
<path fill="#7952A1" d="M422.146,111.485c-0.2,0-0.387-0.049-0.551-0.145c-0.729-0.423-2.087-1.212,4.969-15.973
	c4.381-9.163,10.752-21.025,17.938-33.404c6.967-11.999,13.938-23.165,19.635-31.444c8.996-13.079,10.698-13.079,11.338-13.079
	c0.201,0,0.387,0.048,0.552,0.144c0.728,0.424,2.087,1.213-4.97,15.973c-4.384,9.167-10.754,21.031-17.94,33.408
	c-6.964,11.995-13.936,23.161-19.632,31.442C424.487,111.485,422.785,111.485,422.146,111.485z M475.269,18.884
	c-2.453,1.134-13.695,16.417-29.577,43.771c-15.858,27.316-23.557,44.65-23.342,47.383c2.482-1.169,13.717-16.449,29.574-43.766
	C467.794,38.942,475.491,21.605,475.269,18.884z"/>
<path fill="#CC202D" d="M408.104,94.396c-3.104,0-5.129-0.776-6.014-2.308c-3.614-6.247,14.08-23.011,40.278-38.167
	c19.109-11.055,37.614-18.199,47.146-18.199c3.105,0,5.129,0.777,6.017,2.31c3.612,6.246-14.077,23.009-40.275,38.164
	C436.145,87.253,417.635,94.396,408.104,94.396z M489.514,36.641c-9.382,0-27.707,7.095-46.687,18.075
	c-24.894,14.401-43.187,31.303-39.943,36.911c0.709,1.229,2.466,1.851,5.22,1.851c9.383,0,27.711-7.096,46.692-18.077
	c24.894-14.4,43.183-31.303,39.938-36.909C494.025,37.263,492.27,36.641,489.514,36.641z"/>
<path fill="#415C94" d="M447.855,117.853h-0.023c-3.55-0.025-6.783-5.74-9.106-16.094c-2.281-10.158-3.481-23.642-3.38-37.969
	c0.214-30.217,6.021-53.886,13.225-53.886c7.237,0.051,12.725,23.801,12.511,54.067C460.868,94.186,455.058,117.853,447.855,117.853
	z M448.587,10.823c-6.485,0-12.12,24.259-12.322,52.973c-0.102,14.26,1.091,27.67,3.355,37.762
	c2.19,9.751,5.185,15.354,8.218,15.376l0.018,0.46v-0.46c6.468,0,12.104-24.257,12.307-52.968
	C460.364,35.206,455.063,10.869,448.587,10.823z"/>
<path fill="#70963E" d="M466.552,112.907c-13.956,0-31.301-14.034-43.167-34.923c-7.099-12.494-11.215-25.698-11.596-37.182
	c-0.385-11.588,3.083-20.062,9.766-23.857c2.45-1.391,5.249-2.098,8.318-2.098c13.955,0,31.304,14.037,43.173,34.928
	c7.097,12.491,11.212,25.695,11.593,37.178c0.384,11.588-3.086,20.062-9.768,23.857C472.42,112.201,469.622,112.907,466.552,112.907
	z M429.873,15.766c-2.908,0-5.555,0.666-7.865,1.978c-6.372,3.619-9.674,11.798-9.302,23.029
	c0.377,11.338,4.453,24.392,11.478,36.759c11.524,20.289,28.947,34.459,42.368,34.459c2.908,0,5.555-0.667,7.865-1.979
	c6.372-3.619,9.675-11.798,9.306-23.027c-0.377-11.338-4.451-24.391-11.476-36.756C460.721,29.938,443.297,15.766,429.873,15.766z"
	/>
<path fill="#FDED1E" d="M491.177,93.577c-7.409,0-27.205-8.479-48.138-20.618c-12.396-7.188-23.614-14.711-31.585-21.183
	c-8.479-6.884-12.087-11.563-10.728-13.908c0.511-0.881,1.632-1.326,3.33-1.326c7.409,0,27.209,8.479,48.144,20.618
	c22.731,13.182,45.283,29.958,42.308,35.091C493.996,93.13,492.878,93.577,491.177,93.577z M404.057,37.919
	c-1.139,0-1.898,0.227-2.138,0.639c-0.673,1.162,1.647,5.04,10.403,12.148c7.917,6.429,19.071,13.907,31.407,21.062
	c20.746,12.029,40.255,20.431,47.447,20.431c1.142,0,1.901-0.227,2.141-0.639c1.589-2.741-12.384-16.144-41.808-33.207
	C430.762,46.322,411.249,37.919,404.057,37.919z"/>
<path fill="#48C2C3" d="M448.216,78.156c-26.645,0-54.205-4.899-54.205-13.098c0-8.197,27.561-13.097,54.205-13.097
	s54.202,4.899,54.202,13.097C502.418,73.257,474.86,78.156,448.216,78.156z M448.216,53.339c-31.602,0-52.829,6.061-52.829,11.72
	s21.228,11.719,52.829,11.719c31.599,0,52.825-6.06,52.825-11.719S479.814,53.339,448.216,53.339z"/>
<circle fill="#171617" cx="448.71" cy="62.942" r="20.178"/>
<circle fill="#FFFFFF" cx="438.614" cy="57.475" r="6.433"/>
<circle fill="#FFFFFF" cx="443.008" cy="48.509" r="1.95"/>
<path fill="#B9529F" d="M475.528,18.13c0,0,0.044,0.096,0.13,0.283c0.064,0.188,0.141,0.506,0.147,0.905
	c0.027,0.807-0.114,1.99-0.474,3.443c-0.695,2.916-2.129,6.943-4.122,11.641c-0.994,2.352-2.115,4.878-3.373,7.516
	c-1.251,2.64-2.591,5.414-4.058,8.242c-1.465,2.829-2.973,5.754-4.596,8.678c-1.614,2.927-3.283,5.887-4.974,8.832
	c-1.72,2.93-3.468,5.842-5.213,8.692c-1.733,2.859-3.533,5.614-5.27,8.288c-3.493,5.326-6.922,10.195-10.047,14.234
	c-3.109,4.049-5.93,7.266-8.129,9.3c-1.093,1.023-2.045,1.73-2.744,2.129c-0.358,0.186-0.628,0.333-0.83,0.384
	c-0.197,0.065-0.296,0.098-0.296,0.098s0.095-0.044,0.279-0.133c0.192-0.074,0.442-0.252,0.764-0.475
	c0.637-0.463,1.46-1.284,2.436-2.385c1.941-2.216,4.414-5.638,7.236-9.842c2.811-4.211,5.97-9.209,9.281-14.61
	c1.667-2.694,3.32-5.521,5.044-8.366c1.71-2.854,3.419-5.771,5.105-8.699c1.714-2.914,3.401-5.844,5.034-8.742
	c1.628-2.901,3.23-5.757,4.781-8.52c1.518-2.78,3.001-5.46,4.361-8.024c1.357-2.567,2.635-4.996,3.776-7.257
	c2.271-4.525,4.053-8.355,5.029-11.133c0.482-1.388,0.786-2.509,0.848-3.292c0.041-0.393,0.008-0.686-0.034-0.888
	C475.561,18.231,475.528,18.13,475.528,18.13z"/>
<path fill="#ED1F24" d="M402.065,92.192c0,0,0.086,0.074,0.249,0.215c0.085,0.067,0.18,0.167,0.31,0.255
	c0.137,0.079,0.295,0.168,0.475,0.271c0.739,0.376,1.944,0.643,3.486,0.654c3.102,0.032,7.461-0.995,12.508-2.656
	c5.054-1.677,10.812-4.051,16.857-6.852c3.027-1.396,6.11-2.932,9.232-4.518c3.116-1.59,6.248-3.275,9.344-5.024
	c3.105-1.732,6.176-3.523,9.156-5.358c2.975-1.842,5.89-3.676,8.641-5.551c5.512-3.739,10.472-7.502,14.4-11.082
	c1.957-1.796,3.655-3.544,5.02-5.209c1.362-1.665,2.376-3.258,2.978-4.677c0.609-1.416,0.788-2.641,0.738-3.467
	c0.009-0.418-0.08-0.728-0.119-0.94c-0.042-0.212-0.062-0.321-0.062-0.321s0.028,0.106,0.089,0.315
	c0.053,0.209,0.168,0.515,0.19,0.938c0.112,0.831,0.052,2.116-0.502,3.606c-1.074,2.996-3.772,6.734-7.604,10.519
	c-3.823,3.808-8.72,7.771-14.208,11.648c-2.75,1.932-5.63,3.872-8.627,5.73c-2.991,1.862-6.073,3.691-9.191,5.451
	c-3.129,1.741-6.292,3.421-9.441,5.004c-3.148,1.59-6.298,3.044-9.369,4.405c-6.146,2.704-12.03,4.917-17.211,6.385
	c-5.169,1.483-9.667,2.203-12.831,2.008c-1.581-0.089-2.797-0.486-3.522-0.922c-0.176-0.118-0.331-0.225-0.463-0.314
	c-0.125-0.099-0.211-0.206-0.29-0.278C402.145,92.271,402.065,92.192,402.065,92.192z"/>
<path fill="#3953A4" d="M448.214,10.633c0,0,0.109,0.015,0.321,0.043c0.107,0.014,0.239,0.031,0.396,0.052
	c0.155,0.037,0.333,0.101,0.539,0.166c0.806,0.282,1.928,0.95,2.997,2.156c1.088,1.186,2.16,2.826,3.115,4.816
	c0.975,1.984,1.892,4.3,2.681,6.879c0.802,2.575,1.535,5.401,2.132,8.419c0.613,3.014,1.169,6.21,1.576,9.533
	c0.421,3.321,0.746,6.764,0.959,10.267c0.23,3.504,0.33,7.069,0.354,10.634c-0.001,3.566-0.075,7.131-0.278,10.636
	c-0.183,3.509-0.495,6.953-0.897,10.278c-0.394,3.326-0.929,6.524-1.528,9.542c-0.585,3.021-1.302,5.851-2.098,8.428
	c-1.554,5.159-3.551,9.29-5.474,11.818c-0.949,1.271-1.854,2.137-2.528,2.643c-0.312,0.28-0.615,0.418-0.787,0.545
	c-0.182,0.114-0.274,0.174-0.274,0.174s0.079-0.077,0.233-0.23c0.145-0.161,0.394-0.354,0.647-0.681
	c0.559-0.599,1.228-1.605,1.937-2.938c0.702-1.342,1.374-3.061,2.009-5.071c0.621-2.017,1.17-4.342,1.681-6.897
	c0.492-2.561,0.896-5.361,1.27-8.331c0.358-2.975,0.621-6.126,0.859-9.39c0.233-3.264,0.388-6.644,0.501-10.08
	c0.098-3.438,0.162-6.934,0.137-10.428c0.004-3.496-0.08-6.99-0.203-10.428c-0.135-3.437-0.316-6.817-0.559-10.082
	c-0.252-3.263-0.526-6.415-0.905-9.385c-0.389-2.968-0.802-5.769-1.306-8.326c-1.03-5.093-2.325-9.279-3.969-11.789
	c-0.812-1.25-1.686-2.075-2.385-2.471c-0.175-0.095-0.33-0.188-0.47-0.258c-0.149-0.053-0.276-0.098-0.378-0.134
	C448.318,10.67,448.214,10.633,448.214,10.633z"/>
<path fill="#69BD45" d="M421.682,17.407c0,0-0.446,0.27-1.279,0.773c-0.775,0.572-1.874,1.468-2.938,2.895
	c-1.06,1.421-2.008,3.378-2.691,5.74c-0.679,2.366-1.073,5.138-1.197,8.174c-0.107,3.042,0.115,6.351,0.562,9.817
	c0.457,3.469,1.239,7.087,2.233,10.775c1,3.688,2.302,7.425,3.818,11.134c1.517,3.699,3.309,7.397,5.337,10.866
	c1.064,1.82,2.072,3.503,3.221,5.192c1.119,1.69,2.308,3.326,3.522,4.922c2.466,3.16,5.002,6.195,7.687,8.913
	c2.69,2.708,5.429,5.189,8.197,7.318c2.779,2.11,5.567,3.885,8.28,5.236c2.714,1.349,5.359,2.242,7.776,2.652
	c2.415,0.411,4.584,0.347,6.321-0.006c0.88-0.146,1.622-0.433,2.293-0.632c0.637-0.273,1.188-0.503,1.621-0.722
	c0.843-0.482,1.293-0.741,1.293-0.741s-0.412,0.319-1.186,0.921c-0.402,0.277-0.929,0.581-1.549,0.946
	c-0.651,0.295-1.39,0.685-2.289,0.935c-1.77,0.568-4.067,0.913-6.677,0.695c-2.608-0.193-5.514-0.888-8.467-2.123
	c-2.965-1.211-6.024-2.864-9.024-4.939c-3.003-2.069-6-4.488-8.863-7.236c-2.854-2.754-5.655-5.759-8.216-9.044
	c-1.279-1.642-2.53-3.329-3.713-5.075c-1.193-1.719-2.346-3.586-3.387-5.342c-2.125-3.724-3.92-7.537-5.467-11.414
	c-1.563-3.864-2.714-7.81-3.656-11.658c-0.945-3.851-1.53-7.653-1.824-11.281c-0.305-3.627-0.286-7.089,0.061-10.26
	c0.334-3.172,1.02-6.05,1.967-8.478c0.932-2.433,2.184-4.384,3.459-5.75c1.264-1.384,2.549-2.128,3.402-2.607
	C421.203,17.615,421.682,17.407,421.682,17.407z"/>
<path fill="#F6EC13" d="M401.127,37.921c0.026-0.008-0.166,0.453,0.068,1.209c0.219,0.766,0.856,1.764,1.808,2.909
	c1.942,2.278,5.192,5.111,9.271,8.276c2.043,1.578,4.307,3.227,6.711,4.958c2.409,1.722,4.999,3.471,7.673,5.287
	c2.676,1.813,5.504,3.596,8.354,5.439c2.856,1.834,5.792,3.646,8.752,5.412c2.945,1.794,5.914,3.548,8.868,5.215
	c2.963,1.649,5.857,3.312,8.72,4.808c2.86,1.495,5.631,2.93,8.296,4.205c2.671,1.266,5.213,2.421,7.592,3.403
	c4.762,1.956,8.873,3.23,11.837,3.687c1.479,0.22,2.665,0.302,3.472,0.257c0.407,0.003,0.711-0.058,0.923-0.067
	c0.211-0.019,0.318-0.03,0.318-0.03s-0.105,0.029-0.309,0.084c-0.203,0.045-0.503,0.166-0.908,0.223
	c-0.805,0.165-2.017,0.298-3.562,0.262c-3.089-0.051-7.468-0.838-12.484-2.429c-2.516-0.782-5.202-1.738-7.985-2.88
	c-2.789-1.128-5.702-2.389-8.646-3.824c-2.945-1.435-5.985-2.929-8.988-4.6c-3.014-1.651-6.044-3.383-9.041-5.17
	c-2.976-1.823-5.919-3.694-8.787-5.584c-2.876-1.879-5.621-3.852-8.271-5.768c-2.657-1.91-5.146-3.868-7.48-5.755
	c-2.34-1.88-4.482-3.749-6.41-5.53c-3.865-3.549-6.824-6.838-8.5-9.448c-0.84-1.3-1.307-2.467-1.416-3.298
	C400.889,38.316,401.157,37.925,401.127,37.921z"/>
<path fill="#6FCCDD" d="M394.697,64.148c0,0,0.026,0.108,0.078,0.316c0.041,0.215,0.151,0.515,0.322,0.885
	c0.354,0.743,1.121,1.697,2.366,2.577c2.489,1.781,6.713,3.206,11.864,4.318c2.584,0.558,5.413,1.021,8.416,1.455
	c3.005,0.425,6.191,0.762,9.49,1.089c3.301,0.323,6.723,0.545,10.199,0.776c3.475,0.22,7.019,0.387,10.543,0.467
	c0.322,0.013,0.842-0.01,1.259-0.017l1.324-0.036l2.646-0.093c1.761-0.086,3.515-0.171,5.257-0.255
	c3.479-0.212,6.904-0.398,10.209-0.687c6.614-0.552,12.764-1.268,17.967-2.232c5.188-0.973,9.462-2.211,12.083-3.797
	c1.305-0.787,2.166-1.657,2.558-2.383c0.202-0.354,0.319-0.656,0.367-0.862c0.055-0.209,0.082-0.316,0.082-0.316
	s-0.016,0.109-0.046,0.324c-0.022,0.214-0.104,0.532-0.271,0.922c-0.315,0.785-1.097,1.828-2.383,2.769
	c-2.563,1.919-6.84,3.58-12.051,4.89c-2.609,0.662-5.462,1.264-8.497,1.765c-3.032,0.514-6.243,0.978-9.572,1.337
	c-3.332,0.36-6.776,0.712-10.283,0.926c-1.755,0.117-3.524,0.219-5.3,0.306l-2.671,0.119l-1.341,0.049
	c-0.471,0.009-0.84,0.043-1.406,0.025c-3.586-0.114-7.146-0.315-10.655-0.569c-3.51-0.245-6.952-0.621-10.28-1.021
	c-3.328-0.396-6.534-0.907-9.561-1.473c-3.028-0.557-5.871-1.212-8.464-1.95c-2.595-0.726-4.938-1.548-6.943-2.46
	c-2.012-0.895-3.674-1.912-4.879-2.956c-1.22-1.036-1.889-2.154-2.165-2.95c-0.133-0.401-0.206-0.718-0.224-0.933
	C394.711,64.259,394.697,64.148,394.697,64.148z"/>
<path fill="#171617" d="M448.972,124.992c-33.677,0-61.075-27.495-61.075-61.292c0-33.798,27.398-61.295,61.075-61.295
	c33.676,0,61.073,27.497,61.073,61.295C510.045,97.497,482.647,124.992,448.972,124.992z M448.972,2.865
	c-33.425,0-60.614,27.291-60.614,60.835c0,33.544,27.189,60.832,60.614,60.832c33.423,0,60.614-27.288,60.614-60.832
	C509.586,30.155,482.395,2.865,448.972,2.865z"/>
<g>
	<path fill="#171617" d="M38.374,75.518v-33.8l-16.764,33.8h-1.801L3.045,41.72v33.798H1.08V38.496L3.582,38.5l17.097,34.471
		L37.836,38.5l2.503-0.004v37.021H38.374z"/>
	<path fill="#171617" d="M47.328,75.518V38.496h27.356v1.802H49.294v15.016h22.497v1.802H49.294v16.599h25.664v1.803H47.328z"/>
	<path fill="#171617" d="M92.048,75.518H79.653V38.496h14.47c5.97,0,10.484,1.657,13.542,4.969
		c2.984,3.167,4.477,7.699,4.477,13.596c0,6.043-1.875,10.666-5.624,13.869C102.987,73.988,98.163,75.518,92.048,75.518z
		 M106.245,44.776c-2.73-2.984-6.79-4.478-12.177-4.478H81.619v33.417h10.593c5.605,0,10.001-1.409,13.187-4.231
		c3.185-2.82,4.778-6.962,4.778-12.422C110.176,51.675,108.866,47.579,106.245,44.776z"/>
	<path fill="#171617" d="M118.312,75.518V38.496h1.966v37.021H118.312z"/>
	<path fill="#171617" d="M127.157,75.518V38.496h27.356v1.802h-25.391v15.016h22.497v1.802h-22.497v16.599h25.664v1.803H127.157z"/>
	<path fill="#171617" d="M188.874,75.505l-27.425-34.363v34.376h-1.966V38.496h2.293c3.064,3.999,7.643,9.706,13.735,17.122
		c6.283,7.729,10.86,13.435,13.73,17.117V38.496h1.966v37.021L188.874,75.505z"/>
	<path fill="#171617" d="M211.301,40.298v35.219h-1.966V40.298h-14.197v-1.802h30.305v1.802H211.301z"/>
	<path fill="#171617" d="M247.394,75.9c-6.007,0-10.702-1.675-14.088-5.024c-3.386-3.349-5.078-7.972-5.078-13.869
		c0-5.823,1.701-10.338,5.105-13.542c3.403-3.203,8.09-4.805,14.061-4.805c5.97,0,10.675,1.602,14.114,4.805
		c3.441,3.203,5.161,7.718,5.161,13.542c0,5.934-1.729,10.566-5.187,13.896C258.022,74.234,253.326,75.9,247.394,75.9z
		 M247.394,40.462c-5.388,0-9.602,1.447-12.641,4.341c-3.04,2.894-4.56,6.962-4.56,12.204s1.529,9.401,4.587,12.477
		c3.058,3.077,7.262,4.614,12.613,4.614c5.424,0,9.665-1.52,12.723-4.559c3.059-3.039,4.587-7.217,4.587-12.532
		c0-5.314-1.566-9.428-4.697-12.34C256.984,41.863,252.78,40.462,247.394,40.462z"/>
	<path fill="#171617" d="M290.257,75.9c-6.007,0-10.702-1.675-14.088-5.024c-3.386-3.349-5.079-7.972-5.079-13.869
		c0-5.823,1.701-10.338,5.105-13.542s8.09-4.805,14.062-4.805c5.969,0,10.675,1.602,14.113,4.805
		c3.441,3.203,5.161,7.718,5.161,13.542c0,5.934-1.73,10.566-5.188,13.896C300.885,74.234,296.188,75.9,290.257,75.9z
		 M290.257,40.462c-5.389,0-9.603,1.447-12.642,4.341s-4.56,6.962-4.56,12.204s1.529,9.401,4.587,12.477
		c3.058,3.077,7.263,4.614,12.614,4.614c5.422,0,9.664-1.52,12.722-4.559s4.587-7.217,4.587-12.532c0-5.314-1.565-9.428-4.696-12.34
		C299.848,41.863,295.643,40.462,290.257,40.462z"/>
	<path fill="#171617" d="M315.155,75.518V38.496h1.966v35.219h23.371v1.803H315.155z"/>
	<path fill="#171617" d="M359.603,75.9c-4.695,0-8.464-0.837-11.303-2.513c-3.422-2.075-5.133-5.313-5.133-9.72V62.74h1.966v0.71
		c0,7.098,4.841,10.647,14.524,10.647c3.312,0,6.079-0.51,8.3-1.528c2.984-1.384,4.478-3.531,4.478-6.443
		c0-2.003-0.547-3.53-1.639-4.587c-0.91-0.909-2.421-1.674-4.531-2.293c-1.092-0.328-3.695-0.929-7.809-1.803
		c-4.624-0.982-7.754-1.892-9.393-2.729c-3.13-1.674-4.695-4.114-4.695-7.317c0-6.188,4.732-9.282,14.196-9.282
		c9.901,0,14.926,3.786,15.071,11.357h-1.966c-0.219-3.786-1.602-6.389-4.15-7.809c-2.002-1.165-4.987-1.747-8.955-1.747
		c-8.153,0-12.23,2.494-12.23,7.48c0,2.476,1.146,4.333,3.44,5.569c1.491,0.801,4.04,1.529,7.645,2.185
		c6.587,1.201,10.975,2.476,13.158,3.822c2.549,1.529,3.822,3.968,3.822,7.316c0,3.385-1.729,5.935-5.187,7.645
		C366.555,75.244,363.352,75.9,359.603,75.9z"/>
</g>
<g>
	<path fill="#171617" stroke="#171617" stroke-width="0.5" stroke-miterlimit="10" d="M133.023,87.288
		c1.058,0,2.041,0.404,2.792,1.037c0.074,0.067,0.098,0.176,0.049,0.242c-0.074,0.081-0.172,0.095-0.234,0.027
		c-0.713-0.606-1.611-0.957-2.607-0.957c-2.275,0-4.144,1.981-4.144,4.42c0,2.466,1.869,4.446,4.144,4.446
		c0.983,0,1.882-0.351,2.595-0.956c0.074-0.055,0.172-0.055,0.233,0.026c0.062,0.067,0.037,0.176-0.037,0.242
		c-0.775,0.634-1.734,1.038-2.792,1.038c-2.459-0.014-4.464-2.157-4.464-4.797C128.559,89.443,130.563,87.288,133.023,87.288z"/>
	<path fill="#171617" stroke="#171617" stroke-width="0.5" stroke-miterlimit="10" d="M142.862,94.819
		c0-0.66-0.271-1.118-0.615-1.455c-0.332-0.323-0.824-0.7-2.177-0.7h-1.513v4.015c0,0.095-0.061,0.176-0.147,0.176
		c-0.086,0-0.16-0.081-0.16-0.176v-9.082c0-0.094,0.074-0.175,0.16-0.175h0.013h0.012h2.497c1.315,0,2.398,1.173,2.398,2.628
		c0,1.198-0.726,2.196-1.722,2.507c0.147,0.066,0.295,0.147,0.443,0.242c0.541,0.336,1.119,0.983,1.119,2.021
		c0,0.769,0.099,1.187,0.185,1.375c0.086,0.176,0.16,0.161,0.197,0.161c0.098-0.014,0.185,0.055,0.197,0.135
		c0.024,0.176-0.11,0.216-0.209,0.216c-0.123,0-0.32-0.094-0.443-0.364C142.948,96.072,142.862,95.628,142.862,94.819z
		 M140.931,92.314h0.024c1.131-0.015,2.054-0.998,2.054-2.265s-0.935-2.291-2.078-2.291h-2.374v4.556H140.931z"/>
	<path fill="#171617" stroke="#171617" stroke-width="0.5" stroke-miterlimit="10" d="M149.712,87.288
		c2.324,0,4.182,2.169,4.206,4.864c-0.024,2.707-1.882,4.878-4.206,4.878c-2.324,0-4.181-2.171-4.193-4.878
		C145.531,89.457,147.388,87.288,149.712,87.288z M149.712,96.666c2.103-0.027,3.85-2.021,3.861-4.514
		c-0.012-2.507-1.758-4.515-3.861-4.515c-2.115,0-3.861,2.008-3.861,4.515C145.851,94.645,147.597,96.639,149.712,96.666z"/>
	<path fill="#171617" stroke="#171617" stroke-width="0.5" stroke-miterlimit="10" d="M155.825,95.562
		c-0.062-0.068-0.073-0.176-0.012-0.244c0.062-0.066,0.159-0.08,0.221-0.012c0.013,0.012,1.304,1.278,2.989,1.278
		c1.66,0,2.951-1.022,2.951-2.331c0-1.494-1.315-1.832-2.706-2.183c-1.426-0.364-2.902-0.74-2.902-2.465
		c0-1.227,1.193-2.237,2.669-2.237c1.697,0,2.583,1.091,2.62,1.145c0.062,0.068,0.049,0.176-0.013,0.244
		c-0.074,0.054-0.172,0.054-0.222-0.014c-0.012-0.015-0.836-1.024-2.385-1.024c-1.291,0-2.349,0.849-2.349,1.887
		c0,1.44,1.291,1.778,2.656,2.129c1.451,0.363,2.939,0.74,2.939,2.519c0,1.497-1.427,2.669-3.259,2.669
		C157.215,96.922,155.875,95.614,155.825,95.562z"/>
	<path fill="#171617" stroke="#171617" stroke-width="0.5" stroke-miterlimit="10" d="M163.905,95.562
		c-0.062-0.068-0.073-0.176-0.012-0.244c0.062-0.066,0.159-0.08,0.221-0.012c0.013,0.012,1.304,1.278,2.989,1.278
		c1.66,0,2.951-1.022,2.951-2.331c0-1.494-1.315-1.832-2.706-2.183c-1.426-0.364-2.902-0.74-2.902-2.465
		c0-1.227,1.193-2.237,2.668-2.237c1.697,0,2.583,1.091,2.62,1.145c0.062,0.068,0.049,0.176-0.013,0.244
		c-0.074,0.054-0.172,0.054-0.222-0.014c-0.012-0.015-0.836-1.024-2.386-1.024c-1.291,0-2.348,0.849-2.348,1.887
		c0,1.44,1.291,1.778,2.656,2.129c1.451,0.363,2.939,0.74,2.939,2.519c0,1.497-1.427,2.669-3.259,2.669
		C165.295,96.922,163.955,95.614,163.905,95.562z"/>
	<path fill="#171617" stroke="#171617" stroke-width="0.5" stroke-miterlimit="10" d="M172.108,92.152
		c0-0.082,0.05-0.148,0.123-0.148h2.804c0.073,0,0.11,0.066,0.11,0.148c0,0.08-0.037,0.12-0.11,0.12h-2.804
		C172.158,92.272,172.108,92.232,172.108,92.152z"/>
	<path fill="#171617" stroke="#171617" stroke-width="0.5" stroke-miterlimit="10" d="M177.594,87.597
		c0-0.094,0.062-0.175,0.16-0.175h0.012h1.636c2.386,0,4.304,2.115,4.304,4.702c0,2.615-1.918,4.73-4.304,4.73h-1.636h-0.012
		c-0.098,0-0.16-0.081-0.16-0.176V87.597z M179.401,96.518c2.214-0.027,3.984-1.968,3.997-4.394
		c-0.012-2.397-1.783-4.365-3.997-4.365h-1.5v8.759H179.401z"/>
	<path fill="#171617" stroke="#171617" stroke-width="0.5" stroke-miterlimit="10" d="M185.908,87.597
		c0-0.106,0.062-0.175,0.16-0.175c0.074,0,0.147,0.068,0.147,0.175v9.082c0,0.107-0.074,0.176-0.147,0.176
		c-0.098,0-0.16-0.068-0.16-0.176V87.597z"/>
	<path fill="#171617" stroke="#171617" stroke-width="0.5" stroke-miterlimit="10" d="M196.459,88.109l-3.136,4.783
		c-0.037,0.04-0.086,0.067-0.135,0.067h-0.024c-0.062,0-0.111-0.027-0.135-0.067l-3.148-4.796v8.582
		c0,0.095-0.062,0.176-0.148,0.176c-0.086,0-0.159-0.081-0.159-0.176V87.61c0-0.08,0.073-0.174,0.159-0.174
		c0.013,0,0.025,0,0.037,0.012c0.037,0,0.074,0.028,0.111,0.055l3.295,5.013l3.296-5.013c0.024-0.026,0.062-0.055,0.099-0.055
		c0.012-0.012,0.024-0.012,0.036-0.012c0.099,0,0.16,0.094,0.16,0.174v9.068c0,0.095-0.062,0.176-0.16,0.176
		c-0.073,0-0.147-0.081-0.147-0.176V88.109z"/>
	<path fill="#171617" stroke="#171617" stroke-width="0.5" stroke-miterlimit="10" d="M199.511,96.854h-0.025
		c-0.098,0-0.147-0.081-0.147-0.176v-9.082c0-0.08,0.049-0.16,0.147-0.175h0.012h0.013h4.562c0.087,0,0.148,0.081,0.148,0.175
		c0,0.096-0.062,0.162-0.148,0.162h-4.426v4.204h3.898c0.086,0,0.147,0.081,0.147,0.161c0,0.108-0.062,0.176-0.147,0.176h-3.898
		v4.218h4.426c0.087,0,0.148,0.066,0.148,0.161s-0.062,0.176-0.148,0.176h-4.549H199.511z"/>
	<path fill="#171617" stroke="#171617" stroke-width="0.5" stroke-miterlimit="10" d="M206.939,88.123v8.556
		c0,0.095-0.062,0.176-0.148,0.176c-0.073,0-0.159-0.081-0.159-0.176v-9.015v-0.04c0-0.054,0.024-0.107,0.062-0.147
		c0.086-0.055,0.172-0.04,0.221,0.026l5.682,8.65v-8.489c0-0.094,0.086-0.174,0.159-0.174c0.087,0,0.148,0.08,0.148,0.174v9.015
		c0,0.095-0.062,0.176-0.148,0.176c-0.062,0-0.122-0.04-0.147-0.108c-0.012,0-0.012,0-0.012-0.014L206.939,88.123z"/>
	<path fill="#171617" stroke="#171617" stroke-width="0.5" stroke-miterlimit="10" d="M215.646,95.562
		c-0.062-0.068-0.074-0.176-0.013-0.244c0.062-0.066,0.16-0.08,0.222-0.012c0.013,0.012,1.304,1.278,2.988,1.278
		c1.66,0,2.951-1.022,2.951-2.331c0-1.494-1.315-1.832-2.706-2.183c-1.426-0.364-2.901-0.74-2.901-2.465
		c0-1.227,1.192-2.237,2.668-2.237c1.697,0,2.583,1.091,2.62,1.145c0.062,0.068,0.049,0.176-0.013,0.244
		c-0.074,0.054-0.172,0.054-0.222-0.014c-0.012-0.015-0.836-1.024-2.386-1.024c-1.291,0-2.349,0.849-2.349,1.887
		c0,1.44,1.291,1.778,2.656,2.129c1.451,0.363,2.939,0.74,2.939,2.519c0,1.497-1.427,2.669-3.259,2.669
		C217.036,96.922,215.695,95.614,215.646,95.562z"/>
	<path fill="#171617" stroke="#171617" stroke-width="0.5" stroke-miterlimit="10" d="M224.402,87.597
		c0-0.106,0.062-0.175,0.16-0.175c0.074,0,0.147,0.068,0.147,0.175v9.082c0,0.107-0.073,0.176-0.147,0.176
		c-0.099,0-0.16-0.068-0.16-0.176V87.597z"/>
	<path fill="#171617" stroke="#171617" stroke-width="0.5" stroke-miterlimit="10" d="M231.88,87.288
		c2.324,0,4.181,2.169,4.206,4.864c-0.025,2.707-1.882,4.878-4.206,4.878s-4.182-2.171-4.194-4.878
		C227.698,89.457,229.556,87.288,231.88,87.288z M231.88,96.666c2.103-0.027,3.849-2.021,3.861-4.514
		c-0.013-2.507-1.759-4.515-3.861-4.515c-2.115,0-3.862,2.008-3.862,4.515C228.018,94.645,229.765,96.639,231.88,96.666z"/>
	<path fill="#171617" stroke="#171617" stroke-width="0.5" stroke-miterlimit="10" d="M238.51,88.123v8.556
		c0,0.095-0.062,0.176-0.148,0.176c-0.073,0-0.159-0.081-0.159-0.176v-9.015v-0.04c0-0.054,0.024-0.107,0.062-0.147
		c0.086-0.055,0.172-0.04,0.221,0.026l5.682,8.65v-8.489c0-0.094,0.086-0.174,0.159-0.174c0.087,0,0.148,0.08,0.148,0.174v9.015
		c0,0.095-0.062,0.176-0.148,0.176c-0.062,0-0.123-0.04-0.147-0.108c-0.012,0-0.012,0-0.012-0.014L238.51,88.123z"/>
	<path fill="#171617" stroke="#171617" stroke-width="0.5" stroke-miterlimit="10" d="M252.518,94.294h-4.305l-0.823,2.412
		c-0.013,0.067-0.074,0.122-0.136,0.122c-0.013,0-0.037-0.014-0.062-0.014c-0.074-0.041-0.11-0.136-0.074-0.23l3.1-9.054
		c0.024-0.082,0.086-0.122,0.16-0.108c0.062,0,0.123,0.041,0.16,0.108l3.099,9.054c0.037,0.095-0.013,0.189-0.086,0.23
		c-0.024,0-0.037,0.014-0.049,0.014c-0.062,0-0.123-0.055-0.16-0.122L252.518,94.294z M248.336,93.943h4.059l-2.029-5.901
		L248.336,93.943z"/>
	<path fill="#171617" stroke="#171617" stroke-width="0.5" stroke-miterlimit="10" d="M255.813,96.854h-0.025
		c-0.086,0-0.159-0.081-0.159-0.176v-9.082c0-0.094,0.073-0.175,0.159-0.175c0.087,0,0.148,0.081,0.148,0.175v8.921h4.438
		c0.1,0,0.161,0.066,0.161,0.161s-0.062,0.176-0.161,0.176H255.813z"/>
	<path fill="#171617" stroke="#171617" stroke-width="0.5" stroke-miterlimit="10" d="M270.325,87.288
		c1.059,0,2.043,0.404,2.792,1.037c0.074,0.067,0.1,0.176,0.051,0.242c-0.074,0.081-0.174,0.095-0.235,0.027
		c-0.713-0.606-1.61-0.957-2.607-0.957c-2.274,0-4.144,1.981-4.144,4.42c0,2.466,1.869,4.446,4.144,4.446
		c0.984,0,1.882-0.351,2.597-0.956c0.072-0.055,0.172-0.055,0.233,0.026c0.062,0.067,0.036,0.176-0.038,0.242
		c-0.774,0.634-1.733,1.038-2.792,1.038c-2.459-0.014-4.463-2.157-4.463-4.797C265.862,89.443,267.866,87.288,270.325,87.288z"/>
	<path fill="#171617" stroke="#171617" stroke-width="0.5" stroke-miterlimit="10" d="M279.292,87.288
		c2.324,0,4.181,2.169,4.205,4.864c-0.024,2.707-1.881,4.878-4.205,4.878c-2.325,0-4.182-2.171-4.194-4.878
		C275.11,89.457,276.967,87.288,279.292,87.288z M279.292,96.666c2.103-0.027,3.849-2.021,3.861-4.514
		c-0.013-2.507-1.759-4.515-3.861-4.515c-2.115,0-3.861,2.008-3.861,4.515C275.431,94.645,277.177,96.639,279.292,96.666z"/>
	<path fill="#171617" stroke="#171617" stroke-width="0.5" stroke-miterlimit="10" d="M292.328,88.109l-3.136,4.783
		c-0.037,0.04-0.087,0.067-0.136,0.067h-0.024c-0.062,0-0.111-0.027-0.135-0.067l-3.148-4.796v8.582
		c0,0.095-0.062,0.176-0.148,0.176c-0.085,0-0.159-0.081-0.159-0.176V87.61c0-0.08,0.074-0.174,0.159-0.174
		c0.013,0,0.025,0,0.038,0.012c0.036,0,0.072,0.028,0.11,0.055l3.295,5.013l3.296-5.013c0.025-0.026,0.062-0.055,0.099-0.055
		c0.013-0.012,0.024-0.012,0.037-0.012c0.098,0,0.159,0.094,0.159,0.174v9.068c0,0.095-0.062,0.176-0.159,0.176
		c-0.074,0-0.147-0.081-0.147-0.176V88.109z"/>
	<path fill="#171617" stroke="#171617" stroke-width="0.5" stroke-miterlimit="10" d="M302.314,88.109l-3.136,4.783
		c-0.036,0.04-0.087,0.067-0.136,0.067h-0.023c-0.062,0-0.112-0.027-0.136-0.067l-3.148-4.796v8.582
		c0,0.095-0.062,0.176-0.147,0.176s-0.16-0.081-0.16-0.176V87.61c0-0.08,0.074-0.174,0.16-0.174c0.012,0,0.024,0,0.037,0.012
		c0.037,0,0.073,0.028,0.11,0.055l3.295,5.013l3.297-5.013c0.025-0.026,0.062-0.055,0.098-0.055
		c0.013-0.012,0.025-0.012,0.038-0.012c0.098,0,0.159,0.094,0.159,0.174v9.068c0,0.095-0.062,0.176-0.159,0.176
		c-0.074,0-0.148-0.081-0.148-0.176V88.109z"/>
	<path fill="#171617" stroke="#171617" stroke-width="0.5" stroke-miterlimit="10" d="M305.82,87.597
		c0-0.094,0.062-0.175,0.159-0.175c0.087,0,0.148,0.081,0.148,0.175v5.472c0,1.913,1.4,3.422,3.136,3.449
		c1.721-0.027,3.123-1.536,3.136-3.449v-5.472c0-0.094,0.074-0.175,0.159-0.175c0.074,0,0.16,0.081,0.16,0.175v5.472
		c0,2.102-1.561,3.786-3.455,3.786c-1.907,0-3.443-1.685-3.443-3.786V87.597z"/>
	<path fill="#171617" stroke="#171617" stroke-width="0.5" stroke-miterlimit="10" d="M315.942,88.123v8.556
		c0,0.095-0.062,0.176-0.147,0.176c-0.074,0-0.16-0.081-0.16-0.176v-9.015v-0.04c0-0.054,0.024-0.107,0.062-0.147
		c0.086-0.055,0.173-0.04,0.222,0.026l5.681,8.65v-8.489c0-0.094,0.087-0.174,0.161-0.174c0.085,0,0.146,0.08,0.146,0.174v9.015
		c0,0.095-0.062,0.176-0.146,0.176c-0.062,0-0.123-0.04-0.148-0.108c-0.013,0-0.013,0-0.013-0.014L315.942,88.123z"/>
	<path fill="#171617" stroke="#171617" stroke-width="0.5" stroke-miterlimit="10" d="M324.772,87.597
		c0-0.106,0.062-0.175,0.16-0.175c0.074,0,0.147,0.068,0.147,0.175v9.082c0,0.107-0.073,0.176-0.147,0.176
		c-0.099,0-0.16-0.068-0.16-0.176V87.597z"/>
	<path fill="#171617" stroke="#171617" stroke-width="0.5" stroke-miterlimit="10" d="M332.52,87.288
		c1.059,0,2.042,0.404,2.792,1.037c0.074,0.067,0.099,0.176,0.05,0.242c-0.074,0.081-0.173,0.095-0.234,0.027
		c-0.713-0.606-1.61-0.957-2.607-0.957c-2.274,0-4.144,1.981-4.144,4.42c0,2.466,1.869,4.446,4.144,4.446
		c0.984,0,1.882-0.351,2.596-0.956c0.073-0.055,0.172-0.055,0.233,0.026c0.062,0.067,0.037,0.176-0.037,0.242
		c-0.774,0.634-1.733,1.038-2.792,1.038c-2.459-0.014-4.464-2.157-4.464-4.797C328.056,89.443,330.061,87.288,332.52,87.288z"/>
	<path fill="#171617" stroke="#171617" stroke-width="0.5" stroke-miterlimit="10" d="M342.568,94.294h-4.305l-0.823,2.412
		c-0.013,0.067-0.074,0.122-0.136,0.122c-0.013,0-0.036-0.014-0.062-0.014c-0.074-0.041-0.11-0.136-0.074-0.23l3.1-9.054
		c0.024-0.082,0.086-0.122,0.159-0.108c0.062,0,0.123,0.041,0.16,0.108l3.1,9.054c0.036,0.095-0.013,0.189-0.087,0.23
		c-0.024,0-0.036,0.014-0.049,0.014c-0.062,0-0.123-0.055-0.16-0.122L342.568,94.294z M338.387,93.943h4.059l-2.029-5.901
		L338.387,93.943z"/>
	<path fill="#171617" stroke="#171617" stroke-width="0.5" stroke-miterlimit="10" d="M346.787,87.759h-2.841
		c-0.086,0-0.159-0.066-0.159-0.162c0-0.094,0.073-0.175,0.159-0.175h5.988c0.1,0,0.161,0.081,0.161,0.175
		c0,0.096-0.062,0.162-0.161,0.162h-2.828v8.92c0,0.095-0.086,0.176-0.159,0.176c-0.099,0-0.16-0.081-0.16-0.176V87.759z"/>
	<path fill="#171617" stroke="#171617" stroke-width="0.5" stroke-miterlimit="10" d="M352.506,87.597
		c0-0.106,0.062-0.175,0.16-0.175c0.074,0,0.147,0.068,0.147,0.175v9.082c0,0.107-0.073,0.176-0.147,0.176
		c-0.099,0-0.16-0.068-0.16-0.176V87.597z"/>
	<path fill="#171617" stroke="#171617" stroke-width="0.5" stroke-miterlimit="10" d="M359.983,87.288
		c2.324,0,4.181,2.169,4.205,4.864c-0.024,2.707-1.881,4.878-4.205,4.878c-2.325,0-4.182-2.171-4.194-4.878
		C355.802,89.457,357.658,87.288,359.983,87.288z M359.983,96.666c2.103-0.027,3.849-2.021,3.861-4.514
		c-0.013-2.507-1.759-4.515-3.861-4.515c-2.115,0-3.861,2.008-3.861,4.515C356.122,94.645,357.868,96.639,359.983,96.666z"/>
	<path fill="#171617" stroke="#171617" stroke-width="0.5" stroke-miterlimit="10" d="M366.613,88.123v8.556
		c0,0.095-0.062,0.176-0.147,0.176c-0.074,0-0.16-0.081-0.16-0.176v-9.015v-0.04c0-0.054,0.024-0.107,0.062-0.147
		c0.086-0.055,0.172-0.04,0.222,0.026l5.681,8.65v-8.489c0-0.094,0.087-0.174,0.161-0.174c0.085,0,0.146,0.08,0.146,0.174v9.015
		c0,0.095-0.062,0.176-0.146,0.176c-0.062,0-0.123-0.04-0.148-0.108c-0.013,0-0.013,0-0.013-0.014L366.613,88.123z"/>
</g>
</svg>
